<?xml version="1.0" encoding="UTF-8"?><svg id="Layer_1" xmlns="http://www.w3.org/2000/svg" width="1366" height="768" xmlns:xlink="http://www.w3.org/1999/xlink" viewBox="0 0 1366 768"><defs><style>.cls-1{fill:#000;}.cls-1,.cls-2{stroke-width:0px;}.cls-2{fill:#fbf21a;}</style></defs><rect class="cls-2" x=".5" y=".5" width="1365" height="767"/><path class="cls-1" d="M1365,1v766H1V1h1364M1366,0H0v768h1366V0h0Z"/><path class="cls-1" d="M66.9,261.03h11.83c2.33,0,4.22.32,5.65.95s2.62,1.54,3.56,2.72,1.62,2.56,2.04,4.13.63,3.23.63,4.99c0,2.75-.31,4.89-.94,6.41s-1.5,2.79-2.61,3.81-2.31,1.71-3.59,2.05c-1.75.47-3.33.7-4.75.7h-11.83v-25.77ZM74.86,266.86v14.08h1.95c1.66,0,2.85-.18,3.55-.55s1.25-1.01,1.65-1.93.6-2.41.6-4.47c0-2.73-.45-4.6-1.34-5.61s-2.37-1.51-4.43-1.51h-1.99Z"/><path class="cls-1" d="M100.84,274.17l-6.84-.72c.26-1.2.63-2.14,1.12-2.82s1.19-1.28,2.1-1.78c.66-.36,1.56-.64,2.71-.84s2.39-.3,3.73-.3c2.14,0,3.87.12,5.17.36s2.38.74,3.25,1.5c.61.53,1.09,1.27,1.44,2.24s.53,1.89.53,2.77v8.24c0,.88.06,1.57.17,2.07s.35,1.13.73,1.91h-6.71c-.27-.48-.45-.85-.53-1.1s-.16-.65-.25-1.19c-.94.9-1.87,1.55-2.79,1.93-1.27.52-2.74.77-4.41.77-2.23,0-3.92-.52-5.07-1.55s-1.73-2.3-1.73-3.81c0-1.42.42-2.58,1.25-3.5s2.37-1.59,4.61-2.04c2.68-.54,4.42-.92,5.22-1.13s1.64-.5,2.53-.85c0-.88-.18-1.49-.54-1.85s-1-.53-1.92-.53c-1.17,0-2.05.19-2.64.56-.46.29-.83.84-1.11,1.65ZM107.04,277.94c-.98.35-2.01.66-3.08.93-1.45.39-2.37.77-2.76,1.14-.4.39-.6.83-.6,1.32,0,.56.2,1.02.59,1.38s.97.54,1.73.54,1.54-.19,2.22-.58,1.17-.86,1.46-1.42.43-1.28.43-2.17v-1.14Z"/><path class="cls-1" d="M118.38,268.13h6.68v2.72c.96-1.14,1.93-1.95,2.91-2.43s2.16-.72,3.55-.72c1.49,0,2.67.26,3.54.79.87.53,1.58,1.31,2.13,2.36,1.12-1.22,2.15-2.05,3.07-2.49.92-.44,2.07-.66,3.42-.66,2,0,3.56.59,4.69,1.78,1.12,1.19,1.69,3.05,1.69,5.58v11.72h-7.17v-10.63c0-.84-.16-1.47-.49-1.88-.48-.64-1.07-.97-1.79-.97-.84,0-1.52.3-2.03.91-.51.61-.77,1.59-.77,2.94v9.63h-7.17v-10.28c0-.82-.05-1.38-.14-1.67-.15-.47-.42-.85-.79-1.13-.38-.29-.82-.43-1.32-.43-.82,0-1.5.31-2.03.93-.53.62-.79,1.64-.79,3.06v9.53h-7.17v-18.67Z"/><path class="cls-1" d="M154.33,268.13h6.66v3.04c1-1.24,2-2.13,3.02-2.66s2.26-.8,3.73-.8c1.98,0,3.53.59,4.65,1.77s1.68,3,1.68,5.46v11.87h-7.19v-10.27c0-1.17-.22-2-.65-2.49s-1.04-.73-1.83-.73c-.87,0-1.57.33-2.11.98s-.81,1.83-.81,3.53v8.96h-7.15v-18.67Z"/><path class="cls-1" d="M178.36,279.62h7.65v7.17h-7.65v-7.17Z"/><path class="cls-1" d="M190.35,279.62h7.65v7.17h-7.65v-7.17Z"/><path class="cls-1" d="M202.34,279.62h7.65v7.17h-7.65v-7.17Z"/><path class="cls-1" d="M214.32,279.62h7.65v7.17h-7.65v-7.17Z"/><path class="cls-1" d="M238.88,261.03h11.83c2.33,0,4.22.32,5.65.95s2.62,1.54,3.56,2.72,1.62,2.56,2.04,4.13.63,3.23.63,4.99c0,2.75-.31,4.89-.94,6.41s-1.5,2.79-2.61,3.81-2.31,1.71-3.59,2.05c-1.75.47-3.33.7-4.75.7h-11.83v-25.77ZM246.84,266.86v14.08h1.95c1.66,0,2.85-.18,3.55-.55s1.25-1.01,1.65-1.93.6-2.41.6-4.47c0-2.73-.45-4.6-1.34-5.61s-2.37-1.51-4.43-1.51h-1.99Z"/><path class="cls-1" d="M285.97,286.79h-6.68v-3.02c-1,1.24-2,2.13-3.01,2.65s-2.26.79-3.74.79c-1.97,0-3.51-.59-4.63-1.77s-1.68-2.99-1.68-5.44v-11.88h7.19v10.27c0,1.17.22,2,.65,2.5s1.04.74,1.83.74c.86,0,1.56-.33,2.1-.98s.82-1.83.82-3.53v-8.98h7.15v18.67Z"/><path class="cls-1" d="M310.28,268.13h3.41v5.24h-3.41v13.43h-7.17v-13.43h-2.67v-5.24h2.67v-.84c0-.76.08-1.6.25-2.51s.47-1.66.92-2.24,1.08-1.05,1.9-1.41,2.01-.54,3.58-.54c1.25,0,3.08.15,5.47.44l-.79,4.32c-.86-.14-1.55-.21-2.07-.21-.64,0-1.11.11-1.39.33s-.48.56-.6,1.03c-.06.26-.09.8-.09,1.63Z"/><path class="cls-1" d="M314.84,277.51c0-2.85.96-5.19,2.88-7.04s4.52-2.77,7.79-2.77c3.74,0,6.56,1.08,8.47,3.25,1.54,1.75,2.3,3.9,2.3,6.45,0,2.87-.95,5.22-2.86,7.06s-4.54,2.75-7.9,2.75c-3,0-5.43-.76-7.28-2.29-2.27-1.89-3.41-4.36-3.41-7.42ZM322.01,277.5c0,1.66.34,2.89,1.01,3.69s1.52,1.2,2.54,1.2,1.88-.39,2.54-1.18.99-2.04.99-3.78c0-1.62-.33-2.82-1-3.61s-1.49-1.19-2.48-1.19c-1.04,0-1.9.4-2.58,1.2s-1.02,2.02-1.02,3.67Z"/><path class="cls-1" d="M339.8,268.13h6.7v3.06c.64-1.32,1.31-2.24,2-2.73s1.53-.75,2.54-.75,2.21.33,3.46.98l-2.21,5.1c-.84-.35-1.51-.53-2-.53-.94,0-1.66.39-2.18,1.16-.74,1.09-1.11,3.13-1.11,6.12v6.26h-7.19v-18.67Z"/><path class="cls-1" d="M357.55,268.13h6.68v2.72c.96-1.14,1.93-1.95,2.91-2.43.98-.48,2.16-.72,3.55-.72,1.49,0,2.67.26,3.54.79s1.58,1.31,2.13,2.36c1.12-1.22,2.15-2.05,3.07-2.49.92-.44,2.07-.66,3.42-.66,2,0,3.56.59,4.69,1.78,1.12,1.19,1.69,3.05,1.69,5.58v11.72h-7.17v-10.63c0-.84-.16-1.47-.49-1.88-.48-.64-1.08-.97-1.79-.97-.84,0-1.52.3-2.03.91s-.77,1.59-.77,2.94v9.63h-7.17v-10.28c0-.82-.05-1.38-.14-1.67-.15-.47-.42-.85-.79-1.13-.38-.29-.82-.43-1.32-.43-.82,0-1.5.31-2.03.93-.53.62-.79,1.64-.79,3.06v9.53h-7.17v-18.67Z"/><path class="cls-1" d="M400.02,274.17l-6.84-.72c.26-1.2.63-2.14,1.12-2.82s1.19-1.28,2.1-1.78c.66-.36,1.56-.64,2.71-.84s2.39-.3,3.73-.3c2.14,0,3.87.12,5.17.36s2.38.74,3.25,1.5c.61.53,1.09,1.27,1.44,2.24s.53,1.89.53,2.77v8.24c0,.88.06,1.57.17,2.07s.35,1.13.73,1.91h-6.71c-.27-.48-.45-.85-.53-1.1s-.16-.65-.25-1.19c-.94.9-1.87,1.55-2.79,1.93-1.27.52-2.74.77-4.41.77-2.23,0-3.92-.52-5.07-1.55s-1.73-2.3-1.73-3.81c0-1.42.42-2.58,1.25-3.5s2.37-1.59,4.61-2.04c2.68-.54,4.42-.92,5.22-1.13s1.64-.5,2.53-.85c0-.88-.18-1.49-.54-1.85s-1-.53-1.92-.53c-1.17,0-2.05.19-2.64.56-.46.29-.83.84-1.11,1.65ZM407.54,262.13c0,1.17-.41,2.17-1.24,2.99s-1.82,1.23-2.98,1.23-2.17-.41-3-1.23-1.24-1.82-1.24-2.99.41-2.17,1.24-3,1.83-1.24,3-1.24,2.15.41,2.98,1.24,1.24,1.83,1.24,3ZM406.22,277.94c-.98.35-2.01.66-3.08.93-1.45.39-2.37.77-2.76,1.14-.4.39-.6.83-.6,1.32,0,.56.2,1.02.59,1.38s.97.54,1.73.54,1.54-.19,2.22-.58,1.17-.86,1.46-1.42.43-1.28.43-2.17v-1.14ZM405.12,262.12c0-.5-.18-.93-.53-1.28s-.78-.53-1.28-.53-.93.18-1.28.53-.53.78-.53,1.28.18.93.53,1.28.78.53,1.28.53.93-.18,1.28-.53.53-.78.53-1.28Z"/><path class="cls-1" d="M438.23,279.24h-14.34c.13,1.15.44,2,.93,2.57.69.81,1.59,1.21,2.71,1.21.7,0,1.37-.18,2-.53.39-.22.8-.62,1.25-1.18l7.05.65c-1.08,1.88-2.38,3.22-3.9,4.03s-3.71,1.22-6.56,1.22c-2.47,0-4.42-.35-5.84-1.05s-2.59-1.8-3.52-3.32-1.4-3.3-1.4-5.35c0-2.92.93-5.28,2.8-7.08s4.45-2.71,7.74-2.71c2.67,0,4.78.4,6.33,1.21s2.72,1.98,3.53,3.52,1.21,3.53,1.21,5.99v.81ZM430.96,275.81c-.14-1.38-.51-2.37-1.12-2.97s-1.4-.9-2.38-.9c-1.14,0-2.04.45-2.72,1.35-.43.56-.71,1.4-.83,2.51h7.05Z"/><path class="cls-1" d="M461.17,261.03v25.77h-6.7v-2.76c-.94,1.17-1.79,1.96-2.57,2.37-1.03.54-2.18.81-3.45.81-2.54,0-4.49-.97-5.83-2.9s-2.01-4.28-2.01-7.05c0-3.09.74-5.46,2.22-7.1s3.37-2.46,5.65-2.46c1.11,0,2.12.19,3.03.56s1.71.94,2.42,1.69v-8.93h7.22ZM454,277.41c0-1.46-.31-2.56-.93-3.28s-1.41-1.08-2.36-1.08c-.83,0-1.53.35-2.09,1.04s-.84,1.85-.84,3.48c0,1.52.29,2.64.87,3.35s1.3,1.06,2.15,1.06c.91,0,1.68-.36,2.29-1.07s.91-1.88.91-3.5Z"/><path class="cls-1" d="M486.26,279.24h-14.34c.13,1.15.44,2,.93,2.57.69.81,1.59,1.21,2.71,1.21.7,0,1.37-.18,2-.53.39-.22.8-.62,1.25-1.18l7.05.65c-1.08,1.88-2.38,3.22-3.9,4.03s-3.71,1.22-6.56,1.22c-2.47,0-4.42-.35-5.84-1.05s-2.59-1.8-3.52-3.32-1.4-3.3-1.4-5.35c0-2.92.93-5.28,2.8-7.08s4.45-2.71,7.74-2.71c2.67,0,4.78.4,6.33,1.21s2.72,1.98,3.53,3.52,1.21,3.53,1.21,5.99v.81ZM478.98,275.81c-.14-1.38-.51-2.37-1.12-2.97s-1.4-.9-2.38-.9c-1.14,0-2.04.45-2.72,1.35-.43.56-.71,1.4-.83,2.51h7.05Z"/><path class="cls-1" d="M500.29,281.61l7.1-.67c.29.84.7,1.45,1.23,1.81s1.23.54,2.11.54c.96,0,1.71-.2,2.23-.61.41-.3.62-.68.62-1.14,0-.51-.27-.91-.81-1.19-.39-.2-1.41-.44-3.08-.74-2.48-.43-4.21-.83-5.18-1.2-.97-.37-1.78-.99-2.44-1.87s-.99-1.88-.99-3c0-1.23.36-2.29,1.07-3.18.71-.89,1.7-1.55,2.95-1.99s2.94-.66,5.04-.66c2.23,0,3.87.17,4.93.51s1.95.87,2.65,1.58,1.3,1.68,1.77,2.9l-6.79.67c-.18-.6-.47-1.04-.88-1.32-.56-.38-1.24-.56-2.04-.56s-1.4.14-1.77.43-.55.63-.55,1.04c0,.46.23.8.7,1.04s1.49.44,3.06.63c2.38.27,4.15.64,5.31,1.12s2.05,1.17,2.66,2.05.92,1.87.92,2.93-.33,2.12-.98,3.14c-.65,1.02-1.68,1.83-3.08,2.43s-3.31.9-5.72.9c-3.41,0-5.84-.49-7.29-1.46s-2.38-2.36-2.79-4.15Z"/><path class="cls-1" d="M523.8,261.03h7.15v4.87h-7.15v-4.87ZM523.8,268.13h7.15v18.67h-7.15v-18.67Z"/><path class="cls-1" d="M535.58,268.13h6.68v2.72c.96-1.14,1.93-1.95,2.91-2.43.98-.48,2.16-.72,3.55-.72,1.49,0,2.67.26,3.54.79s1.58,1.31,2.13,2.36c1.12-1.22,2.15-2.05,3.07-2.49.92-.44,2.07-.66,3.42-.66,2,0,3.56.59,4.69,1.78,1.12,1.19,1.69,3.05,1.69,5.58v11.72h-7.17v-10.63c0-.84-.16-1.47-.49-1.88-.48-.64-1.08-.97-1.79-.97-.84,0-1.52.3-2.03.91s-.77,1.59-.77,2.94v9.63h-7.17v-10.28c0-.82-.05-1.38-.14-1.67-.15-.47-.42-.85-.79-1.13-.38-.29-.82-.43-1.32-.43-.82,0-1.5.31-2.03.93-.53.62-.79,1.64-.79,3.06v9.53h-7.17v-18.67Z"/><path class="cls-1" d="M571.56,293.9v-25.77h6.7v2.76c.93-1.16,1.78-1.95,2.55-2.36,1.04-.55,2.2-.83,3.46-.83,2.5,0,4.43.96,5.79,2.87s2.05,4.27,2.05,7.08c0,3.11-.74,5.48-2.23,7.11s-3.37,2.45-5.64,2.45c-1.1,0-2.11-.19-3.01-.56s-1.72-.93-2.43-1.67v8.91h-7.22ZM578.74,277.51c0,1.48.31,2.57.93,3.29s1.41,1.07,2.36,1.07c.83,0,1.53-.34,2.09-1.03s.84-1.85.84-3.49c0-1.51-.29-2.62-.88-3.33s-1.3-1.06-2.14-1.06c-.91,0-1.68.36-2.29,1.07s-.91,1.88-.91,3.48Z"/><path class="cls-1" d="M616.27,279.24h-14.34c.13,1.15.44,2,.93,2.57.69.81,1.59,1.21,2.71,1.21.7,0,1.37-.18,2-.53.39-.22.8-.62,1.25-1.18l7.05.65c-1.08,1.88-2.38,3.22-3.9,4.03s-3.71,1.22-6.56,1.22c-2.47,0-4.42-.35-5.84-1.05s-2.59-1.8-3.52-3.32-1.4-3.3-1.4-5.35c0-2.92.93-5.28,2.8-7.08s4.45-2.71,7.74-2.71c2.67,0,4.78.4,6.33,1.21s2.72,1.98,3.53,3.52,1.21,3.53,1.21,5.99v.81ZM608.99,275.81c-.14-1.38-.51-2.37-1.12-2.97s-1.4-.9-2.38-.9c-1.14,0-2.04.45-2.72,1.35-.43.56-.71,1.4-.83,2.51h7.05Z"/><path class="cls-1" d="M619.8,261.03h7.17v25.77h-7.17v-25.77Z"/><path class="cls-1" d="M640.17,261.03v7.1h3.94v5.24h-3.94v6.61c0,.8.08,1.32.23,1.58.23.4.64.6,1.23.6.53,0,1.27-.15,2.21-.46l.53,4.94c-1.77.39-3.42.58-4.96.58-1.78,0-3.09-.23-3.94-.68s-1.47-1.15-1.87-2.08c-.4-.93-.61-2.44-.61-4.52v-6.57h-2.64v-5.24h2.64v-3.43l7.17-3.67Z"/><path class="cls-1" d="M647.52,261.03h7.15v9.49c.97-1.01,1.94-1.73,2.9-2.16s2.1-.65,3.41-.65c1.95,0,3.48.59,4.6,1.78s1.68,3,1.68,5.45v11.87h-7.19v-10.27c0-1.17-.22-2-.65-2.49s-1.04-.73-1.83-.73c-.87,0-1.57.33-2.11.98s-.81,1.83-.81,3.53v8.96h-7.15v-25.77Z"/><path class="cls-1" d="M692.26,279.24h-14.34c.13,1.15.44,2,.93,2.57.69.81,1.59,1.21,2.71,1.21.7,0,1.37-.18,2-.53.39-.22.8-.62,1.25-1.18l7.05.65c-1.08,1.88-2.38,3.22-3.9,4.03s-3.71,1.22-6.56,1.22c-2.47,0-4.42-.35-5.84-1.05s-2.59-1.8-3.52-3.32-1.4-3.3-1.4-5.35c0-2.92.93-5.28,2.8-7.08s4.45-2.71,7.74-2.71c2.67,0,4.78.4,6.33,1.21s2.72,1.98,3.53,3.52,1.21,3.53,1.21,5.99v.81ZM684.98,275.81c-.14-1.38-.51-2.37-1.12-2.97s-1.4-.9-2.38-.9c-1.14,0-2.04.45-2.72,1.35-.43.56-.71,1.4-.83,2.51h7.05Z"/><path class="cls-1" d="M695.54,268.13h6.66v3.04c1-1.24,2-2.13,3.02-2.66s2.26-.8,3.73-.8c1.98,0,3.53.59,4.65,1.77s1.68,3,1.68,5.46v11.87h-7.19v-10.27c0-1.17-.22-2-.65-2.49s-1.04-.73-1.83-.73c-.87,0-1.57.33-2.11.98s-.81,1.83-.81,3.53v8.96h-7.15v-18.67Z"/><path class="cls-1" d="M738.08,274.17l-6.84-.72c.26-1.2.63-2.14,1.12-2.82s1.19-1.28,2.1-1.78c.66-.36,1.56-.64,2.71-.84s2.39-.3,3.73-.3c2.14,0,3.87.12,5.17.36s2.38.74,3.25,1.5c.61.53,1.09,1.27,1.44,2.24s.53,1.89.53,2.77v8.24c0,.88.06,1.57.17,2.07s.35,1.13.73,1.91h-6.71c-.27-.48-.45-.85-.53-1.1s-.16-.65-.25-1.19c-.94.9-1.87,1.55-2.79,1.93-1.27.52-2.74.77-4.41.77-2.23,0-3.92-.52-5.07-1.55s-1.73-2.3-1.73-3.81c0-1.42.42-2.58,1.25-3.5s2.37-1.59,4.61-2.04c2.68-.54,4.42-.92,5.22-1.13s1.64-.5,2.53-.85c0-.88-.18-1.49-.54-1.85s-1-.53-1.92-.53c-1.17,0-2.05.19-2.64.56-.46.29-.83.84-1.11,1.65ZM744.29,277.94c-.98.35-2.01.66-3.08.93-1.45.39-2.37.77-2.76,1.14-.4.39-.6.83-.6,1.32,0,.56.2,1.02.59,1.38s.97.54,1.73.54,1.54-.19,2.22-.58,1.17-.86,1.46-1.42.43-1.28.43-2.17v-1.14Z"/><path class="cls-1" d="M763.59,261.03v7.1h3.94v5.24h-3.94v6.61c0,.8.08,1.32.23,1.58.23.4.64.6,1.23.6.53,0,1.27-.15,2.21-.46l.53,4.94c-1.77.39-3.42.58-4.96.58-1.78,0-3.09-.23-3.94-.68s-1.47-1.15-1.87-2.08c-.4-.93-.61-2.44-.61-4.52v-6.57h-2.64v-5.24h2.64v-3.43l7.17-3.67Z"/><path class="cls-1" d="M782.94,261.03h7.15v9.49c.97-1.01,1.94-1.73,2.9-2.16s2.1-.65,3.41-.65c1.95,0,3.48.59,4.6,1.78s1.68,3,1.68,5.45v11.87h-7.19v-10.27c0-1.17-.22-2-.65-2.49s-1.04-.73-1.83-.73c-.87,0-1.57.33-2.11.98s-.81,1.83-.81,3.53v8.96h-7.15v-25.77Z"/><path class="cls-1" d="M806.07,277.51c0-2.85.96-5.19,2.88-7.04s4.52-2.77,7.79-2.77c3.74,0,6.56,1.08,8.47,3.25,1.54,1.75,2.3,3.9,2.3,6.45,0,2.87-.95,5.22-2.86,7.06s-4.54,2.75-7.9,2.75c-3,0-5.43-.76-7.28-2.29-2.27-1.89-3.41-4.36-3.41-7.42ZM813.25,277.5c0,1.66.34,2.89,1.01,3.69s1.52,1.2,2.54,1.2,1.88-.39,2.54-1.18.99-2.04.99-3.78c0-1.62-.33-2.82-1-3.61s-1.49-1.19-2.48-1.19c-1.04,0-1.9.4-2.58,1.2s-1.02,2.02-1.02,3.67Z"/><path class="cls-1" d="M831.21,261.03h7.17v25.77h-7.17v-25.77Z"/><path class="cls-1" d="M862.61,261.03v25.77h-6.7v-2.76c-.94,1.17-1.79,1.96-2.57,2.37-1.03.54-2.18.81-3.45.81-2.54,0-4.49-.97-5.83-2.9s-2.01-4.28-2.01-7.05c0-3.09.74-5.46,2.22-7.1s3.37-2.46,5.65-2.46c1.11,0,2.12.19,3.03.56s1.71.94,2.42,1.69v-8.93h7.22ZM855.43,277.41c0-1.46-.31-2.56-.93-3.28s-1.41-1.08-2.36-1.08c-.83,0-1.53.35-2.09,1.04s-.84,1.85-.84,3.48c0,1.52.29,2.64.87,3.35s1.3,1.06,2.15,1.06c.91,0,1.68-.36,2.29-1.07s.91-1.88.91-3.5Z"/><path class="cls-1" d="M887.69,279.24h-14.34c.13,1.15.44,2,.93,2.57.69.81,1.59,1.21,2.71,1.21.7,0,1.37-.18,2-.53.39-.22.8-.62,1.25-1.18l7.05.65c-1.08,1.88-2.38,3.22-3.9,4.03s-3.71,1.22-6.56,1.22c-2.47,0-4.42-.35-5.84-1.05s-2.59-1.8-3.52-3.32-1.4-3.3-1.4-5.35c0-2.92.93-5.28,2.8-7.08s4.45-2.71,7.74-2.71c2.67,0,4.78.4,6.33,1.21s2.72,1.98,3.53,3.52,1.21,3.53,1.21,5.99v.81ZM880.41,275.81c-.14-1.38-.51-2.37-1.12-2.97s-1.4-.9-2.38-.9c-1.14,0-2.04.45-2.72,1.35-.43.56-.71,1.4-.83,2.51h7.05Z"/><path class="cls-1" d="M919.3,282.54h-9.04l-1.26,4.25h-8.13l9.69-25.77h8.69l9.68,25.77h-8.34l-1.29-4.25ZM917.65,276.97l-2.84-9.26-2.81,9.26h5.66Z"/><path class="cls-1" d="M950.64,261.03v25.77h-6.7v-2.76c-.94,1.17-1.79,1.96-2.57,2.37-1.03.54-2.18.81-3.45.81-2.54,0-4.49-.97-5.83-2.9s-2.01-4.28-2.01-7.05c0-3.09.74-5.46,2.22-7.1s3.37-2.46,5.65-2.46c1.11,0,2.12.19,3.03.56s1.71.94,2.42,1.69v-8.93h7.22ZM943.46,277.41c0-1.46-.31-2.56-.93-3.28s-1.41-1.08-2.36-1.08c-.83,0-1.53.35-2.09,1.04s-.84,1.85-.84,3.48c0,1.52.29,2.64.87,3.35s1.3,1.06,2.15,1.06c.91,0,1.68-.36,2.29-1.07s.91-1.88.91-3.5Z"/><path class="cls-1" d="M961.52,274.17l-6.84-.72c.26-1.2.63-2.14,1.12-2.82s1.19-1.28,2.1-1.78c.66-.36,1.56-.64,2.71-.84s2.39-.3,3.73-.3c2.14,0,3.87.12,5.17.36s2.38.74,3.25,1.5c.61.53,1.09,1.27,1.44,2.24s.53,1.89.53,2.77v8.24c0,.88.06,1.57.17,2.07s.35,1.13.73,1.91h-6.71c-.27-.48-.45-.85-.53-1.1s-.16-.65-.25-1.19c-.94.9-1.87,1.55-2.79,1.93-1.27.52-2.74.77-4.41.77-2.23,0-3.92-.52-5.07-1.55s-1.73-2.3-1.73-3.81c0-1.42.42-2.58,1.25-3.5s2.37-1.59,4.61-2.04c2.68-.54,4.42-.92,5.22-1.13s1.64-.5,2.53-.85c0-.88-.18-1.49-.54-1.85s-1-.53-1.92-.53c-1.17,0-2.05.19-2.64.56-.46.29-.83.84-1.11,1.65ZM967.72,277.94c-.98.35-2.01.66-3.08.93-1.45.39-2.37.77-2.76,1.14-.4.39-.6.83-.6,1.32,0,.56.2,1.02.59,1.38s.97.54,1.73.54,1.54-.19,2.22-.58,1.17-.86,1.46-1.42.43-1.28.43-2.17v-1.14Z"/><path class="cls-1" d="M979.06,268.13h6.68v2.72c.96-1.14,1.93-1.95,2.91-2.43.98-.48,2.16-.72,3.55-.72,1.49,0,2.67.26,3.54.79s1.58,1.31,2.13,2.36c1.12-1.22,2.15-2.05,3.07-2.49.92-.44,2.07-.66,3.42-.66,2,0,3.56.59,4.69,1.78,1.12,1.19,1.69,3.05,1.69,5.58v11.72h-7.17v-10.63c0-.84-.16-1.47-.49-1.88-.48-.64-1.08-.97-1.79-.97-.84,0-1.52.3-2.03.91s-.77,1.59-.77,2.94v9.63h-7.17v-10.28c0-.82-.05-1.38-.14-1.67-.15-.47-.42-.85-.79-1.13-.38-.29-.82-.43-1.32-.43-.82,0-1.5.31-2.03.93-.53.62-.79,1.64-.79,3.06v9.53h-7.17v-18.67Z"/><path class="cls-1" d="M1059.83,279.22h-13.55c.13,1.12.4,1.96.83,2.51.64.83,1.49,1.25,2.53,1.25.59,0,1.09-.13,1.52-.4s.85-.72,1.26-1.36l6.98.62c-.95,1.77-2.18,3.11-3.68,4.02s-3.52,1.36-6.04,1.36c-1.93,0-3.6-.28-4.99-.84-1.05-.42-2.07-1.12-3.04-2.11-1.44,1.05-2.81,1.81-4.1,2.27s-2.73.69-4.32.69c-2.38,0-4.17-.5-5.36-1.5s-1.79-2.31-1.79-3.93c0-.81.19-1.57.56-2.29s.85-1.28,1.42-1.71c.76-.55,1.59-.98,2.48-1.28.41-.14,1.41-.36,3.01-.67s2.62-.52,3.08-.63c.79-.2,1.7-.47,2.74-.83-.02-.93-.21-1.56-.57-1.9-.36-.34-1.01-.51-1.96-.51-1,0-1.74.18-2.23.53-.49.35-.84.92-1.04,1.68l-6.87-.78c.34-1.24.74-2.18,1.2-2.81.62-.87,1.57-1.56,2.84-2.1s3.06-.8,5.37-.8c1.85,0,3.38.16,4.57.49.86.23,1.8.69,2.83,1.35,1.08-.69,2.06-1.17,2.94-1.44s1.93-.41,3.14-.41c1.8,0,3.35.26,4.65.77s2.35,1.22,3.17,2.1,1.41,1.77,1.76,2.65c.46,1.16.69,2.77.69,4.82v1.18ZM1039.35,277.88l-2.2.72c-.28.09-.53.16-.74.19-1.16.22-1.97.56-2.43,1s-.69.91-.69,1.39c0,.54.19,1,.58,1.37s.9.56,1.53.56,1.31-.16,1.99-.49,1.2-.83,1.56-1.49c.27-.48.4-1.12.4-1.92v-1.34ZM1052.7,275.79c-.09-1.21-.4-2.14-.92-2.81s-1.26-1-2.21-1c-.84,0-1.57.3-2.17.91s-.99,1.58-1.17,2.9h6.47Z"/><path class="cls-1" d="M1082.67,261.03v25.77h-6.7v-2.76c-.94,1.17-1.79,1.96-2.57,2.37-1.03.54-2.18.81-3.45.81-2.54,0-4.49-.97-5.83-2.9s-2.01-4.28-2.01-7.05c0-3.09.74-5.46,2.22-7.1s3.37-2.46,5.65-2.46c1.11,0,2.12.19,3.03.56s1.71.94,2.42,1.69v-8.93h7.22ZM1075.49,277.41c0-1.46-.31-2.56-.93-3.28s-1.41-1.08-2.36-1.08c-.83,0-1.53.35-2.09,1.04s-.84,1.85-.84,3.48c0,1.52.29,2.64.87,3.35s1.3,1.06,2.15,1.06c.91,0,1.68-.36,2.29-1.07s.91-1.88.91-3.5Z"/><path class="cls-1" d="M1087.1,268.13h6.7v3.06c.64-1.32,1.31-2.24,2-2.73s1.53-.75,2.54-.75,2.21.33,3.46.98l-2.21,5.1c-.84-.35-1.51-.53-2-.53-.94,0-1.66.39-2.18,1.16-.74,1.09-1.11,3.13-1.11,6.12v6.26h-7.19v-18.67Z"/><path class="cls-1" d="M1123.87,286.79h-6.68v-3.02c-1,1.24-2,2.13-3.01,2.65s-2.26.79-3.74.79c-1.97,0-3.51-.59-4.63-1.77s-1.68-2.99-1.68-5.44v-11.88h7.19v10.27c0,1.17.22,2,.65,2.5s1.04.74,1.83.74c.86,0,1.56-.33,2.1-.98s.82-1.83.82-3.53v-8.98h7.15v18.67Z"/><path class="cls-1" d="M1128.23,279.62h7.65v7.17h-7.65v-7.17Z"/><path class="cls-1" d="M66.81,304.23h14.91c2.48,0,4.39.62,5.72,1.85s2,2.75,2,4.57c0,1.52-.47,2.83-1.42,3.92-.63.73-1.56,1.3-2.78,1.72,1.85.45,3.21,1.21,4.09,2.29s1.31,2.45,1.31,4.09c0,1.34-.31,2.54-.93,3.6s-1.47,1.91-2.55,2.53c-.67.39-1.68.67-3.02.84-1.79.23-2.98.35-3.57.35h-13.75v-25.77ZM74.84,314.33h3.46c1.24,0,2.11-.21,2.59-.64s.73-1.05.73-1.85c0-.75-.24-1.34-.73-1.76s-1.33-.63-2.54-.63h-3.52v4.89ZM74.84,324.46h4.06c1.37,0,2.34-.24,2.9-.73s.84-1.14.84-1.96c0-.76-.28-1.37-.83-1.84s-1.53-.69-2.93-.69h-4.04v5.22Z"/><path class="cls-1" d="M115.04,322.44h-14.34c.13,1.15.44,2,.93,2.57.69.81,1.59,1.21,2.71,1.21.7,0,1.37-.18,2-.53.39-.22.8-.62,1.25-1.18l7.05.65c-1.08,1.88-2.38,3.22-3.9,4.03s-3.71,1.22-6.56,1.22c-2.47,0-4.42-.35-5.84-1.05s-2.59-1.8-3.52-3.32-1.4-3.3-1.4-5.35c0-2.92.93-5.28,2.8-7.08s4.45-2.71,7.74-2.71c2.67,0,4.78.4,6.33,1.21s2.72,1.98,3.53,3.52,1.21,3.53,1.21,5.99v.81ZM107.77,319.01c-.14-1.38-.51-2.37-1.12-2.97s-1.4-.9-2.38-.9c-1.14,0-2.04.45-2.72,1.35-.43.56-.71,1.4-.83,2.51h7.05Z"/><path class="cls-1" d="M126.96,304.23v7.1h3.94v5.24h-3.94v6.61c0,.8.08,1.32.23,1.58.23.4.64.6,1.23.6.53,0,1.27-.15,2.21-.46l.53,4.94c-1.77.39-3.42.58-4.96.58-1.78,0-3.09-.23-3.94-.68s-1.47-1.15-1.87-2.08c-.4-.93-.61-2.44-.61-4.52v-6.57h-2.64v-5.24h2.64v-3.43l7.17-3.67Z"/><path class="cls-1" d="M142.94,304.23v7.1h3.94v5.24h-3.94v6.61c0,.8.08,1.32.23,1.58.23.4.64.6,1.23.6.53,0,1.27-.15,2.21-.46l.53,4.94c-1.77.39-3.42.58-4.96.58-1.78,0-3.09-.23-3.94-.68s-1.47-1.15-1.87-2.08c-.4-.93-.61-2.44-.61-4.52v-6.57h-2.64v-5.24h2.64v-3.43l7.17-3.67Z"/><path class="cls-1" d="M171.01,322.44h-14.34c.13,1.15.44,2,.93,2.57.69.81,1.59,1.21,2.71,1.21.7,0,1.37-.18,2-.53.39-.22.8-.62,1.25-1.18l7.05.65c-1.08,1.88-2.38,3.22-3.9,4.03s-3.71,1.22-6.56,1.22c-2.47,0-4.42-.35-5.84-1.05s-2.59-1.8-3.52-3.32-1.4-3.3-1.4-5.35c0-2.92.93-5.28,2.8-7.08s4.45-2.71,7.74-2.71c2.67,0,4.78.4,6.33,1.21s2.72,1.98,3.53,3.52,1.21,3.53,1.21,5.99v.81ZM163.73,319.01c-.14-1.38-.51-2.37-1.12-2.97s-1.4-.9-2.38-.9c-1.14,0-2.04.45-2.72,1.35-.43.56-.71,1.4-.83,2.51h7.05Z"/><path class="cls-1" d="M174.37,311.33h6.7v3.06c.64-1.32,1.31-2.24,2-2.73s1.53-.75,2.54-.75,2.21.33,3.46.98l-2.21,5.1c-.84-.35-1.51-.53-2-.53-.94,0-1.66.39-2.18,1.16-.74,1.09-1.11,3.13-1.11,6.12v6.26h-7.19v-18.67Z"/><path class="cls-1" d="M202.53,304.23h7.17v25.77h-7.17v-25.77Z"/><path class="cls-1" d="M233.94,330h-6.68v-3.02c-1,1.24-2,2.13-3.01,2.65s-2.26.79-3.74.79c-1.97,0-3.51-.59-4.63-1.77s-1.68-2.99-1.68-5.44v-11.88h7.19v10.27c0,1.17.22,2,.65,2.5s1.04.74,1.83.74c.86,0,1.56-.33,2.1-.98s.82-1.83.82-3.53v-8.98h7.15v18.67Z"/><path class="cls-1" d="M252.2,322.68l6.8.77c-.38,1.42-.99,2.65-1.85,3.68s-1.95,1.84-3.28,2.42-3.02.86-5.07.86-3.63-.18-4.95-.55-2.45-.97-3.4-1.79c-.95-.83-1.69-1.79-2.23-2.91s-.81-2.59-.81-4.43.33-3.52.98-4.79c.48-.94,1.14-1.78,1.97-2.52.83-.74,1.69-1.3,2.57-1.66,1.39-.57,3.18-.86,5.36-.86,3.05,0,5.37.54,6.97,1.63s2.72,2.68,3.37,4.78l-6.73.9c-.21-.8-.59-1.4-1.15-1.8s-1.3-.61-2.24-.61c-1.18,0-2.14.42-2.87,1.27-.73.85-1.1,2.13-1.1,3.85,0,1.53.36,2.7,1.09,3.49.73.8,1.65,1.19,2.78,1.19.94,0,1.73-.24,2.36-.72s1.12-1.22,1.43-2.21Z"/><path class="cls-1" d="M261.68,304.23h7.31v13.3l5.34-6.2h8.81l-6.7,6.54,7.08,12.13h-8.06l-3.78-7.48-2.7,2.63v4.85h-7.31v-25.77Z"/><path class="cls-1" d="M297.7,311.33h6.66v3.04c1-1.24,2-2.13,3.02-2.66s2.26-.8,3.73-.8c1.98,0,3.53.59,4.65,1.77s1.68,3,1.68,5.46v11.87h-7.19v-10.27c0-1.17-.22-2-.65-2.49s-1.04-.73-1.83-.73c-.87,0-1.57.33-2.11.98s-.81,1.83-.81,3.53v8.96h-7.15v-18.67Z"/><path class="cls-1" d="M342.43,322.44h-14.34c.13,1.15.44,2,.93,2.57.69.81,1.59,1.21,2.71,1.21.7,0,1.37-.18,2-.53.39-.22.8-.62,1.25-1.18l7.05.65c-1.08,1.88-2.38,3.22-3.9,4.03s-3.71,1.22-6.56,1.22c-2.47,0-4.42-.35-5.84-1.05s-2.59-1.8-3.52-3.32-1.4-3.3-1.4-5.35c0-2.92.93-5.28,2.8-7.08s4.45-2.71,7.74-2.71c2.67,0,4.78.4,6.33,1.21s2.72,1.98,3.53,3.52,1.21,3.53,1.21,5.99v.81ZM335.16,319.01c-.14-1.38-.51-2.37-1.12-2.97s-1.4-.9-2.38-.9c-1.14,0-2.04.45-2.72,1.35-.43.56-.71,1.4-.83,2.51h7.05Z"/><path class="cls-1" d="M343.19,311.33h8.49l2.96,5.2,3.45-5.2h7.89l-6.37,8.89,6.83,9.77h-8.35l-3.45-6.01-4.05,6.01h-7.75l6.78-9.77-6.43-8.89Z"/><path class="cls-1" d="M377.43,304.23v7.1h3.94v5.24h-3.94v6.61c0,.8.08,1.32.23,1.58.23.4.64.6,1.23.6.53,0,1.27-.15,2.21-.46l.53,4.94c-1.77.39-3.42.58-4.96.58-1.78,0-3.09-.23-3.94-.68s-1.47-1.15-1.87-2.08c-.4-.93-.61-2.44-.61-4.52v-6.57h-2.64v-5.24h2.64v-3.43l7.17-3.67Z"/><path class="cls-1" d="M405.42,304.23v7.1h3.94v5.24h-3.94v6.61c0,.8.08,1.32.23,1.58.23.4.64.6,1.23.6.53,0,1.27-.15,2.21-.46l.53,4.94c-1.77.39-3.42.58-4.96.58-1.78,0-3.09-.23-3.94-.68s-1.47-1.15-1.87-2.08c-.4-.93-.61-2.44-.61-4.52v-6.57h-2.64v-5.24h2.64v-3.43l7.17-3.67Z"/><path class="cls-1" d="M413.03,304.23h7.15v4.87h-7.15v-4.87ZM413.03,311.33h7.15v18.67h-7.15v-18.67Z"/><path class="cls-1" d="M424.8,311.33h6.68v2.72c.96-1.14,1.93-1.95,2.91-2.43.98-.48,2.16-.72,3.55-.72,1.49,0,2.67.26,3.54.79s1.58,1.31,2.13,2.36c1.12-1.22,2.15-2.05,3.07-2.49.92-.44,2.07-.66,3.42-.66,2,0,3.56.59,4.69,1.78,1.12,1.19,1.69,3.05,1.69,5.58v11.72h-7.17v-10.63c0-.84-.16-1.47-.49-1.88-.48-.64-1.08-.97-1.79-.97-.84,0-1.52.3-2.03.91s-.77,1.59-.77,2.94v9.63h-7.17v-10.28c0-.82-.05-1.38-.14-1.67-.15-.47-.42-.85-.79-1.13-.38-.29-.82-.43-1.32-.43-.82,0-1.5.31-2.03.93-.53.62-.79,1.64-.79,3.06v9.53h-7.17v-18.67Z"/><path class="cls-1" d="M481.48,322.44h-14.34c.13,1.15.44,2,.93,2.57.69.81,1.59,1.21,2.71,1.21.7,0,1.37-.18,2-.53.39-.22.8-.62,1.25-1.18l7.05.65c-1.08,1.88-2.38,3.22-3.9,4.03s-3.71,1.22-6.56,1.22c-2.47,0-4.42-.35-5.84-1.05s-2.59-1.8-3.52-3.32-1.4-3.3-1.4-5.35c0-2.92.93-5.28,2.8-7.08s4.45-2.71,7.74-2.71c2.67,0,4.78.4,6.33,1.21s2.72,1.98,3.53,3.52,1.21,3.53,1.21,5.99v.81ZM474.2,319.01c-.14-1.38-.51-2.37-1.12-2.97s-1.4-.9-2.38-.9c-1.14,0-2.04.45-2.72,1.35-.43.56-.71,1.4-.83,2.51h7.05Z"/><path class="cls-1" d="M484.78,322.82h7.65v7.17h-7.65v-7.17Z"/><path class="cls-1" d="M518.58,157.96v-8.94h20.51v18.31c-3.93,2.68-7.4,4.5-10.42,5.46s-6.6,1.45-10.74,1.45c-5.1,0-9.25-.87-12.47-2.61-3.21-1.74-5.7-4.33-7.47-7.76-1.77-3.44-2.65-7.38-2.65-11.84,0-4.69.97-8.76,2.9-12.23,1.93-3.47,4.77-6.1,8.5-7.9,2.91-1.39,6.83-2.08,11.75-2.08s8.3.43,10.65,1.29c2.35.86,4.31,2.19,5.86,4,1.55,1.81,2.72,4.1,3.5,6.87l-12.8,2.29c-.53-1.62-1.42-2.86-2.68-3.72-1.26-.86-2.87-1.29-4.82-1.29-2.91,0-5.23,1.01-6.96,3.03s-2.59,5.22-2.59,9.59c0,4.65.87,7.97,2.62,9.96,1.75,1.99,4.18,2.99,7.31,2.99,1.48,0,2.9-.21,4.25-.64,1.35-.43,2.89-1.16,4.63-2.2v-4.04h-8.88Z"/><path class="cls-1" d="M557.04,152.48l-11.4-1.2c.43-1.99,1.05-3.56,1.86-4.7.81-1.14,1.98-2.13,3.5-2.97,1.09-.6,2.6-1.07,4.51-1.41,1.91-.33,3.98-.5,6.21-.5,3.57,0,6.45.2,8.61.6,2.17.4,3.97,1.24,5.42,2.5,1.02.88,1.82,2.12,2.4,3.74s.88,3.15.88,4.61v13.74c0,1.46.09,2.61.28,3.44.19.83.59,1.89,1.22,3.18h-11.19c-.45-.8-.74-1.41-.88-1.83-.14-.42-.27-1.08-.41-1.98-1.56,1.5-3.12,2.58-4.66,3.22-2.11.86-4.56,1.29-7.35,1.29-3.71,0-6.53-.86-8.45-2.58-1.92-1.72-2.89-3.84-2.89-6.36,0-2.36.69-4.31,2.08-5.83,1.39-1.52,3.94-2.66,7.68-3.4,4.47-.9,7.37-1.53,8.7-1.89,1.33-.36,2.73-.83,4.22-1.42,0-1.46-.3-2.49-.91-3.08-.61-.59-1.67-.88-3.19-.88-1.95,0-3.42.31-4.39.94-.76.49-1.38,1.41-1.85,2.75ZM567.38,158.75c-1.64.59-3.35,1.1-5.13,1.55-2.42.64-3.96,1.28-4.6,1.9-.66.64-1,1.38-1,2.2,0,.94.33,1.7.98,2.3.65.6,1.62.89,2.89.89s2.56-.32,3.71-.97,1.95-1.43,2.43-2.36c.48-.93.72-2.13.72-3.62v-1.9Z"/><path class="cls-1" d="M586.28,142.4h11.13v4.54c1.6-1.89,3.22-3.24,4.86-4.04,1.63-.8,3.6-1.2,5.91-1.2,2.48,0,4.45.44,5.9,1.32,1.45.88,2.63,2.19,3.55,3.93,1.87-2.03,3.58-3.41,5.12-4.15s3.44-1.1,5.71-1.1c3.34,0,5.94.99,7.81,2.97,1.87,1.98,2.81,5.08,2.81,9.3v19.54h-11.95v-17.72c0-1.41-.27-2.45-.82-3.13-.8-1.07-1.79-1.61-2.98-1.61-1.4,0-2.53.51-3.39,1.52-.86,1.02-1.28,2.65-1.28,4.89v16.05h-11.95v-17.14c0-1.37-.08-2.29-.24-2.78-.25-.78-.7-1.41-1.32-1.89-.63-.48-1.36-.72-2.2-.72-1.37,0-2.5.52-3.38,1.55-.88,1.04-1.32,2.73-1.32,5.1v15.88h-11.95v-31.11Z"/><path class="cls-1" d="M680.73,160.92h-23.91c.21,1.91.73,3.34,1.55,4.28,1.15,1.35,2.66,2.02,4.51,2.02,1.17,0,2.29-.29,3.34-.88.64-.37,1.34-1.03,2.08-1.96l11.75,1.08c-1.8,3.12-3.97,5.37-6.5,6.72-2.54,1.36-6.18,2.04-10.93,2.04-4.12,0-7.36-.58-9.73-1.74-2.36-1.16-4.32-3.01-5.87-5.54-1.55-2.53-2.33-5.5-2.33-8.92,0-4.86,1.56-8.8,4.67-11.81,3.12-3.01,7.42-4.51,12.91-4.51,4.45,0,7.97.67,10.55,2.02s4.54,3.3,5.89,5.86c1.35,2.56,2.02,5.89,2.02,9.99v1.35ZM668.61,155.2c-.23-2.3-.85-3.96-1.86-4.95-1.01-1-2.33-1.49-3.97-1.49-1.89,0-3.41.75-4.54,2.26-.72.94-1.18,2.33-1.38,4.19h11.75Z"/><path class="cls-1" d="M704.76,158.04c0-4.75,1.6-8.66,4.8-11.73s7.53-4.61,12.98-4.61c6.23,0,10.94,1.81,14.12,5.42,2.56,2.91,3.84,6.49,3.84,10.75,0,4.79-1.59,8.71-4.76,11.76-3.17,3.06-7.56,4.58-13.17,4.58-5,0-9.04-1.27-12.13-3.81-3.79-3.14-5.68-7.27-5.68-12.36ZM716.71,158.01c0,2.77.56,4.82,1.68,6.15,1.12,1.33,2.53,1.99,4.23,1.99s3.13-.65,4.23-1.96c1.1-1.31,1.66-3.41,1.66-6.3,0-2.7-.56-4.7-1.67-6.02s-2.49-1.98-4.13-1.98c-1.74,0-3.17.67-4.31,2.01-1.13,1.34-1.7,3.37-1.7,6.11Z"/><path class="cls-1" d="M740.68,142.4h12.41l6.04,19.72,6.26-19.72h12.03l-13.22,31.11h-10.58l-12.94-31.11Z"/><path class="cls-1" d="M813.83,160.92h-23.91c.21,1.91.73,3.34,1.55,4.28,1.15,1.35,2.66,2.02,4.51,2.02,1.17,0,2.29-.29,3.34-.88.64-.37,1.34-1.03,2.08-1.96l11.75,1.08c-1.8,3.12-3.96,5.37-6.5,6.72s-6.18,2.04-10.93,2.04c-4.12,0-7.36-.58-9.73-1.74s-4.32-3.01-5.87-5.54c-1.55-2.53-2.33-5.5-2.33-8.92,0-4.86,1.56-8.8,4.67-11.81,3.12-3.01,7.42-4.51,12.91-4.51,4.45,0,7.97.67,10.55,2.02s4.54,3.3,5.89,5.86c1.35,2.56,2.02,5.89,2.02,9.99v1.35ZM801.7,155.2c-.23-2.3-.85-3.96-1.86-4.95-1.01-1-2.33-1.49-3.97-1.49-1.89,0-3.41.75-4.54,2.26-.72.94-1.18,2.33-1.38,4.19h11.75Z"/><path class="cls-1" d="M819.43,142.4h11.16v5.1c1.07-2.21,2.18-3.73,3.33-4.56,1.14-.83,2.55-1.25,4.23-1.25s3.68.55,5.77,1.64l-3.69,8.5c-1.41-.59-2.52-.88-3.34-.88-1.56,0-2.77.64-3.63,1.93-1.23,1.82-1.85,5.21-1.85,10.2v10.43h-11.98v-31.11Z"/><image width="3024" height="4032" transform="translate(826 315) scale(.1)" xlink:href="../../Downloads/IMG_4120.JPG"/></svg>