<?xml version="1.0" encoding="UTF-8"?><svg id="Layer_1" xmlns="http://www.w3.org/2000/svg" width="1366" height="768" xmlns:xlink="http://www.w3.org/1999/xlink" viewBox="0 0 1366 768"><defs><style>.cls-1{fill:#000;}.cls-1,.cls-2{stroke-width:0px;}.cls-2{fill:#fbf21a;}</style></defs><rect class="cls-2" x=".5" y=".5" width="1365" height="767"/><path class="cls-1" d="M1365,1v766H1V1h1364M1366,0H0v768h1366V0h0Z"/><path class="cls-1" d="M243.79,281.93c0-4.21,1.17-7.48,3.52-9.83s5.61-3.52,9.79-3.52,7.59,1.15,9.91,3.45,3.48,5.53,3.48,9.68c0,3.01-.51,5.48-1.52,7.41s-2.48,3.43-4.39,4.5-4.3,1.61-7.16,1.61-5.31-.46-7.22-1.39-3.45-2.39-4.63-4.39-1.78-4.51-1.78-7.52ZM251.75,281.96c0,2.6.48,4.47,1.45,5.61s2.28,1.71,3.95,1.71,3.04-.56,3.97-1.67,1.41-3.11,1.41-5.99c0-2.43-.49-4.2-1.47-5.32s-2.31-1.68-3.98-1.68-2.89.57-3.87,1.71-1.46,3.02-1.46,5.64Z"/><path class="cls-1" d="M273.43,285.51c0-2.85.96-5.19,2.88-7.04s4.52-2.77,7.79-2.77c3.74,0,6.56,1.08,8.47,3.25,1.54,1.75,2.3,3.9,2.3,6.45,0,2.87-.95,5.22-2.86,7.06s-4.54,2.75-7.9,2.75c-3,0-5.43-.76-7.28-2.29-2.27-1.89-3.41-4.36-3.41-7.42ZM280.6,285.5c0,1.66.34,2.89,1.01,3.69s1.52,1.2,2.54,1.2,1.88-.39,2.54-1.18.99-2.04.99-3.78c0-1.62-.33-2.82-1-3.61s-1.49-1.19-2.48-1.19c-1.04,0-1.9.4-2.58,1.2s-1.02,2.02-1.02,3.67Z"/><path class="cls-1" d="M297.44,285.51c0-2.85.96-5.19,2.88-7.04s4.52-2.77,7.79-2.77c3.74,0,6.56,1.08,8.47,3.25,1.54,1.75,2.3,3.9,2.3,6.45,0,2.87-.95,5.22-2.86,7.06s-4.54,2.75-7.9,2.75c-3,0-5.43-.76-7.28-2.29-2.27-1.89-3.41-4.36-3.41-7.42ZM304.61,285.5c0,1.66.34,2.89,1.01,3.69s1.52,1.2,2.54,1.2,1.88-.39,2.54-1.18.99-2.04.99-3.78c0-1.62-.33-2.82-1-3.61s-1.49-1.19-2.48-1.19c-1.04,0-1.9.4-2.58,1.2s-1.02,2.02-1.02,3.67Z"/><path class="cls-1" d="M321.45,285.51c0-2.85.96-5.19,2.88-7.04s4.52-2.77,7.79-2.77c3.74,0,6.56,1.08,8.47,3.25,1.54,1.75,2.3,3.9,2.3,6.45,0,2.87-.95,5.22-2.86,7.06s-4.54,2.75-7.9,2.75c-3,0-5.43-.76-7.28-2.29-2.27-1.89-3.41-4.36-3.41-7.42ZM328.62,285.5c0,1.66.34,2.89,1.01,3.69s1.52,1.2,2.54,1.2,1.88-.39,2.54-1.18.99-2.04.99-3.78c0-1.62-.33-2.82-1-3.61s-1.49-1.19-2.48-1.19c-1.04,0-1.9.4-2.58,1.2s-1.02,2.02-1.02,3.67Z"/><path class="cls-1" d="M345.46,285.51c0-2.85.96-5.19,2.88-7.04s4.52-2.77,7.79-2.77c3.74,0,6.56,1.08,8.47,3.25,1.54,1.75,2.3,3.9,2.3,6.45,0,2.87-.95,5.22-2.86,7.06s-4.54,2.75-7.9,2.75c-3,0-5.43-.76-7.28-2.29-2.27-1.89-3.41-4.36-3.41-7.42ZM352.63,285.5c0,1.66.34,2.89,1.01,3.69s1.52,1.2,2.54,1.2,1.88-.39,2.54-1.18.99-2.04.99-3.78c0-1.62-.33-2.82-1-3.61s-1.49-1.19-2.48-1.19c-1.04,0-1.9.4-2.58,1.2s-1.02,2.02-1.02,3.67Z"/><path class="cls-1" d="M369.47,285.51c0-2.85.96-5.19,2.88-7.04s4.52-2.77,7.79-2.77c3.74,0,6.56,1.08,8.47,3.25,1.54,1.75,2.3,3.9,2.3,6.45,0,2.87-.95,5.22-2.86,7.06s-4.54,2.75-7.9,2.75c-3,0-5.43-.76-7.28-2.29-2.27-1.89-3.41-4.36-3.41-7.42ZM376.64,285.5c0,1.66.34,2.89,1.01,3.69s1.52,1.2,2.54,1.2,1.88-.39,2.54-1.18.99-2.04.99-3.78c0-1.62-.33-2.82-1-3.61s-1.49-1.19-2.48-1.19c-1.04,0-1.9.4-2.58,1.2s-1.02,2.02-1.02,3.67Z"/><path class="cls-1" d="M393.48,285.51c0-2.85.96-5.19,2.88-7.04s4.52-2.77,7.79-2.77c3.74,0,6.56,1.08,8.47,3.25,1.54,1.75,2.3,3.9,2.3,6.45,0,2.87-.95,5.22-2.86,7.06s-4.54,2.75-7.9,2.75c-3,0-5.43-.76-7.28-2.29-2.27-1.89-3.41-4.36-3.41-7.42ZM400.66,285.5c0,1.66.34,2.89,1.01,3.69s1.52,1.2,2.54,1.2,1.88-.39,2.54-1.18.99-2.04.99-3.78c0-1.62-.33-2.82-1-3.61s-1.49-1.19-2.48-1.19c-1.04,0-1.9.4-2.58,1.2s-1.02,2.02-1.02,3.67Z"/><path class="cls-1" d="M417.5,285.51c0-2.85.96-5.19,2.88-7.04s4.52-2.77,7.79-2.77c3.74,0,6.56,1.08,8.47,3.25,1.54,1.75,2.3,3.9,2.3,6.45,0,2.87-.95,5.22-2.86,7.06s-4.54,2.75-7.9,2.75c-3,0-5.43-.76-7.28-2.29-2.27-1.89-3.41-4.36-3.41-7.42ZM424.67,285.5c0,1.66.34,2.89,1.01,3.69s1.52,1.2,2.54,1.2,1.88-.39,2.54-1.18.99-2.04.99-3.78c0-1.62-.33-2.82-1-3.61s-1.49-1.19-2.48-1.19c-1.04,0-1.9.4-2.58,1.2s-1.02,2.02-1.02,3.67Z"/><path class="cls-1" d="M455.38,276.13h6.7v17.63l.02.83c0,1.17-.25,2.29-.75,3.35s-1.16,1.92-1.99,2.58-1.88,1.13-3.15,1.42-2.73.44-4.37.44c-3.75,0-6.33-.56-7.73-1.69s-2.1-2.63-2.1-4.52c0-.23.01-.55.04-.95l6.94.79c.18.64.45,1.09.81,1.34.53.36,1.19.54,1.99.54,1.03,0,1.8-.28,2.31-.83s.76-1.51.76-2.88v-2.83c-.7.83-1.41,1.44-2.11,1.81-1.1.59-2.29.88-3.57.88-2.5,0-4.51-1.09-6.05-3.27-1.09-1.55-1.63-3.59-1.63-6.13,0-2.91.7-5.12,2.11-6.64s3.25-2.29,5.52-2.29c1.45,0,2.65.25,3.59.74s1.83,1.31,2.65,2.44v-2.76ZM448.64,285.18c0,1.35.29,2.35.86,3s1.33.98,2.27.98,1.64-.34,2.24-1.01.91-1.69.91-3.05-.32-2.4-.95-3.12-1.41-1.08-2.32-1.08-1.64.33-2.19.99-.82,1.76-.82,3.3Z"/><path class="cls-1" d="M476.29,276.13h7.44l3.62,11.83,3.76-11.83h7.22l-7.93,18.67h-6.35l-7.76-18.67Z"/><path class="cls-1" d="M500.66,269.03h7.15v4.87h-7.15v-4.87ZM500.66,276.13h7.15v18.67h-7.15v-18.67Z"/><path class="cls-1" d="M532.35,276.13h3.41v5.24h-3.41v13.43h-7.17v-13.43h-2.67v-5.24h2.67v-.84c0-.76.08-1.6.25-2.51s.47-1.66.92-2.24,1.08-1.05,1.9-1.41,2.01-.54,3.58-.54c1.25,0,3.08.15,5.47.44l-.79,4.32c-.86-.14-1.55-.21-2.07-.21-.64,0-1.11.11-1.39.33s-.48.56-.6,1.03c-.06.26-.09.8-.09,1.63Z"/><path class="cls-1" d="M538.64,269.03h7.17v25.77h-7.17v-25.77Z"/><path class="cls-1" d="M548.95,276.13h7.55l3.85,12.43,3.58-12.43h7.05l-7.41,19.95c-.84,2.28-1.71,3.81-2.58,4.61-1.24,1.13-3.13,1.69-5.68,1.69-1.03,0-2.62-.14-4.78-.42l-.56-4.99c1.03.33,2.18.49,3.44.49.84,0,1.52-.19,2.05-.58.52-.39.96-1.08,1.33-2.08l-7.83-18.66Z"/><path class="cls-1" d="M570.88,276.13h7.44l3.62,11.83,3.76-11.83h7.22l-7.93,18.67h-6.35l-7.76-18.67Z"/><path class="cls-1" d="M614.78,287.24h-14.34c.13,1.15.44,2,.93,2.57.69.81,1.59,1.21,2.71,1.21.7,0,1.37-.18,2-.53.39-.22.8-.62,1.25-1.18l7.05.65c-1.08,1.88-2.38,3.22-3.9,4.03s-3.71,1.22-6.56,1.22c-2.47,0-4.42-.35-5.84-1.05s-2.59-1.8-3.52-3.32-1.4-3.3-1.4-5.35c0-2.92.93-5.28,2.8-7.08s4.45-2.71,7.74-2.71c2.67,0,4.78.4,6.33,1.21s2.72,1.98,3.53,3.52,1.21,3.53,1.21,5.99v.81ZM607.5,283.81c-.14-1.38-.51-2.37-1.12-2.97s-1.4-.9-2.38-.9c-1.14,0-2.04.45-2.72,1.35-.43.56-.71,1.4-.83,2.51h7.05Z"/><path class="cls-1" d="M618.06,276.13h6.66v3.04c1-1.24,2-2.13,3.02-2.66s2.26-.8,3.73-.8c1.98,0,3.53.59,4.65,1.77s1.68,3,1.68,5.46v11.87h-7.19v-10.27c0-1.17-.22-2-.65-2.49s-1.04-.73-1.83-.73c-.87,0-1.57.33-2.11.98s-.81,1.83-.81,3.53v8.96h-7.15v-18.67Z"/><path class="cls-1" d="M661.73,269.03v25.77h-6.7v-2.76c-.94,1.17-1.79,1.96-2.57,2.37-1.03.54-2.18.81-3.45.81-2.54,0-4.49-.97-5.83-2.9s-2.01-4.28-2.01-7.05c0-3.09.74-5.46,2.22-7.1s3.37-2.46,5.65-2.46c1.11,0,2.12.19,3.03.56s1.71.94,2.42,1.69v-8.93h7.22ZM654.55,285.41c0-1.46-.31-2.56-.93-3.28s-1.41-1.08-2.36-1.08c-.83,0-1.53.35-2.09,1.04s-.84,1.85-.84,3.48c0,1.52.29,2.64.87,3.35s1.3,1.06,2.15,1.06c.91,0,1.68-.36,2.29-1.07s.91-1.88.91-3.5Z"/><path class="cls-1" d="M686.81,287.24h-14.34c.13,1.15.44,2,.93,2.57.69.81,1.59,1.21,2.71,1.21.7,0,1.37-.18,2-.53.39-.22.8-.62,1.25-1.18l7.05.65c-1.08,1.88-2.38,3.22-3.9,4.03s-3.71,1.22-6.56,1.22c-2.47,0-4.42-.35-5.84-1.05s-2.59-1.8-3.52-3.32-1.4-3.3-1.4-5.35c0-2.92.93-5.28,2.8-7.08s4.45-2.71,7.74-2.71c2.67,0,4.78.4,6.33,1.21s2.72,1.98,3.53,3.52,1.21,3.53,1.21,5.99v.81ZM679.53,283.81c-.14-1.38-.51-2.37-1.12-2.97s-1.4-.9-2.38-.9c-1.14,0-2.04.45-2.72,1.35-.43.56-.71,1.4-.83,2.51h7.05Z"/><path class="cls-1" d="M690.12,287.62h7.65v7.17h-7.65v-7.17Z"/><path class="cls-1" d="M712.76,269.03h24.21v6.36h-8.12v19.41h-7.96v-19.41h-8.12v-6.36Z"/><path class="cls-1" d="M744.78,282.17l-6.84-.72c.26-1.2.63-2.14,1.12-2.82s1.19-1.28,2.1-1.78c.66-.36,1.56-.64,2.71-.84s2.39-.3,3.73-.3c2.14,0,3.87.12,5.17.36s2.38.74,3.25,1.5c.61.53,1.09,1.27,1.44,2.24s.53,1.89.53,2.77v8.24c0,.88.06,1.57.17,2.07s.35,1.13.73,1.91h-6.71c-.27-.48-.45-.85-.53-1.1s-.16-.65-.25-1.19c-.94.9-1.87,1.55-2.79,1.93-1.27.52-2.74.77-4.41.77-2.23,0-3.92-.52-5.07-1.55s-1.73-2.3-1.73-3.81c0-1.42.42-2.58,1.25-3.5s2.37-1.59,4.61-2.04c2.68-.54,4.42-.92,5.22-1.13s1.64-.5,2.53-.85c0-.88-.18-1.49-.54-1.85s-1-.53-1.92-.53c-1.17,0-2.05.19-2.64.56-.46.29-.83.84-1.11,1.65ZM750.99,285.94c-.98.35-2.01.66-3.08.93-1.45.39-2.37.77-2.76,1.14-.4.39-.6.83-.6,1.32,0,.56.2,1.02.59,1.38s.97.54,1.73.54,1.54-.19,2.22-.58,1.17-.86,1.46-1.42.43-1.28.43-2.17v-1.14Z"/><path class="cls-1" d="M762.27,269.03h7.31v13.3l5.34-6.2h8.81l-6.7,6.54,7.08,12.13h-8.06l-3.78-7.48-2.7,2.63v4.85h-7.31v-25.77Z"/><path class="cls-1" d="M797.03,289.61l7.1-.67c.29.84.7,1.45,1.23,1.81s1.23.54,2.11.54c.96,0,1.71-.2,2.23-.61.41-.3.62-.68.62-1.14,0-.51-.27-.91-.81-1.19-.39-.2-1.41-.44-3.08-.74-2.48-.43-4.21-.83-5.18-1.2-.97-.37-1.78-.99-2.44-1.87s-.99-1.88-.99-3c0-1.23.36-2.29,1.07-3.18.71-.89,1.7-1.55,2.95-1.99s2.94-.66,5.04-.66c2.23,0,3.87.17,4.93.51s1.95.87,2.65,1.58,1.3,1.68,1.77,2.9l-6.79.67c-.18-.6-.47-1.04-.88-1.32-.56-.38-1.24-.56-2.04-.56s-1.4.14-1.77.43-.55.63-.55,1.04c0,.46.23.8.7,1.04s1.49.44,3.06.63c2.38.27,4.15.64,5.31,1.12s2.05,1.17,2.66,2.05.92,1.87.92,2.93-.33,2.12-.98,3.14c-.65,1.02-1.68,1.83-3.08,2.43s-3.31.9-5.72.9c-3.41,0-5.84-.49-7.29-1.46s-2.38-2.36-2.79-4.15Z"/><path class="cls-1" d="M820.28,269.03h7.31v13.3l5.34-6.2h8.81l-6.7,6.54,7.08,12.13h-8.06l-3.78-7.48-2.7,2.63v4.85h-7.31v-25.77Z"/><path class="cls-1" d="M850.81,282.17l-6.84-.72c.26-1.2.63-2.14,1.12-2.82s1.19-1.28,2.1-1.78c.66-.36,1.56-.64,2.71-.84s2.39-.3,3.73-.3c2.14,0,3.87.12,5.17.36s2.38.74,3.25,1.5c.61.53,1.09,1.27,1.44,2.24s.53,1.89.53,2.77v8.24c0,.88.06,1.57.17,2.07s.35,1.13.73,1.91h-6.71c-.27-.48-.45-.85-.53-1.1s-.16-.65-.25-1.19c-.94.9-1.87,1.55-2.79,1.93-1.27.52-2.74.77-4.41.77-2.23,0-3.92-.52-5.07-1.55s-1.73-2.3-1.73-3.81c0-1.42.42-2.58,1.25-3.5s2.37-1.59,4.61-2.04c2.68-.54,4.42-.92,5.22-1.13s1.64-.5,2.53-.85c0-.88-.18-1.49-.54-1.85s-1-.53-1.92-.53c-1.17,0-2.05.19-2.64.56-.46.29-.83.84-1.11,1.65ZM857.02,285.94c-.98.35-2.01.66-3.08.93-1.45.39-2.37.77-2.76,1.14-.4.39-.6.83-.6,1.32,0,.56.2,1.02.59,1.38s.97.54,1.73.54,1.54-.19,2.22-.58,1.17-.86,1.46-1.42.43-1.28.43-2.17v-1.14Z"/><path class="cls-1" d="M868.55,269.03h7.17v25.77h-7.17v-25.77Z"/><path class="cls-1" d="M911.95,269.03v25.77h-6.7v-2.76c-.94,1.17-1.79,1.96-2.57,2.37-1.03.54-2.18.81-3.45.81-2.54,0-4.49-.97-5.83-2.9s-2.01-4.28-2.01-7.05c0-3.09.74-5.46,2.22-7.1s3.37-2.46,5.65-2.46c1.11,0,2.12.19,3.03.56s1.71.94,2.42,1.69v-8.93h7.22ZM904.78,285.41c0-1.46-.31-2.56-.93-3.28s-1.41-1.08-2.36-1.08c-.83,0-1.53.35-2.09,1.04s-.84,1.85-.84,3.48c0,1.52.29,2.64.87,3.35s1.3,1.06,2.15,1.06c.91,0,1.68-.36,2.29-1.07s.91-1.88.91-3.5Z"/><path class="cls-1" d="M935.98,294.79h-6.68v-3.02c-1,1.24-2,2.13-3.01,2.65s-2.26.79-3.74.79c-1.97,0-3.51-.59-4.63-1.77s-1.68-2.99-1.68-5.44v-11.88h7.19v10.27c0,1.17.22,2,.65,2.5s1.04.74,1.83.74c.86,0,1.56-.33,2.1-.98s.82-1.83.82-3.53v-8.98h7.15v18.67Z"/><path class="cls-1" d="M952.33,269.03h7.15v9.49c.97-1.01,1.94-1.73,2.9-2.16s2.1-.65,3.41-.65c1.95,0,3.48.59,4.6,1.78s1.68,3,1.68,5.45v11.87h-7.19v-10.27c0-1.17-.22-2-.65-2.49s-1.04-.73-1.83-.73c-.87,0-1.57.33-2.11.98s-.81,1.83-.81,3.53v8.96h-7.15v-25.77Z"/><path class="cls-1" d="M982.86,282.17l-6.84-.72c.26-1.2.63-2.14,1.12-2.82s1.19-1.28,2.1-1.78c.66-.36,1.56-.64,2.71-.84s2.39-.3,3.73-.3c2.14,0,3.87.12,5.17.36s2.38.74,3.25,1.5c.61.53,1.09,1.27,1.44,2.24s.53,1.89.53,2.77v8.24c0,.88.06,1.57.17,2.07s.35,1.13.73,1.91h-6.71c-.27-.48-.45-.85-.53-1.1s-.16-.65-.25-1.19c-.94.9-1.87,1.55-2.79,1.93-1.27.52-2.74.77-4.41.77-2.23,0-3.92-.52-5.07-1.55s-1.73-2.3-1.73-3.81c0-1.42.42-2.58,1.25-3.5s2.37-1.59,4.61-2.04c2.68-.54,4.42-.92,5.22-1.13s1.64-.5,2.53-.85c0-.88-.18-1.49-.54-1.85s-1-.53-1.92-.53c-1.17,0-2.05.19-2.64.56-.46.29-.83.84-1.11,1.65ZM989.07,285.94c-.98.35-2.01.66-3.08.93-1.45.39-2.37.77-2.76,1.14-.4.39-.6.83-.6,1.32,0,.56.2,1.02.59,1.38s.97.54,1.73.54,1.54-.19,2.22-.58,1.17-.86,1.46-1.42.43-1.28.43-2.17v-1.14Z"/><path class="cls-1" d="M997.63,276.13h7.44l3.62,11.83,3.76-11.83h7.22l-7.93,18.67h-6.35l-7.76-18.67Z"/><path class="cls-1" d="M1041.52,287.24h-14.34c.13,1.15.44,2,.93,2.57.69.81,1.59,1.21,2.71,1.21.7,0,1.37-.18,2-.53.39-.22.8-.62,1.25-1.18l7.05.65c-1.08,1.88-2.38,3.22-3.9,4.03s-3.71,1.22-6.56,1.22c-2.47,0-4.42-.35-5.84-1.05s-2.59-1.8-3.52-3.32-1.4-3.3-1.4-5.35c0-2.92.93-5.28,2.8-7.08s4.45-2.71,7.74-2.71c2.67,0,4.78.4,6.33,1.21s2.72,1.98,3.53,3.52,1.21,3.53,1.21,5.99v.81ZM1034.24,283.81c-.14-1.38-.51-2.37-1.12-2.97s-1.4-.9-2.38-.9c-1.14,0-2.04.45-2.72,1.35-.43.56-.71,1.4-.83,2.51h7.05Z"/><path class="cls-1" d="M1044.82,287.62h7.65v7.17h-7.65v-7.17Z"/><path class="cls-1" d="M244.9,312.23h11.83c2.33,0,4.22.32,5.65.95s2.62,1.54,3.56,2.72,1.62,2.56,2.04,4.13.63,3.23.63,4.99c0,2.75-.31,4.89-.94,6.41s-1.5,2.79-2.61,3.81-2.31,1.71-3.59,2.05c-1.75.47-3.33.7-4.75.7h-11.83v-25.77ZM252.86,318.06v14.08h1.95c1.66,0,2.85-.18,3.55-.55s1.25-1.01,1.65-1.93.6-2.41.6-4.47c0-2.73-.45-4.6-1.34-5.61s-2.37-1.51-4.43-1.51h-1.99Z"/><path class="cls-1" d="M291.99,338h-6.68v-3.02c-1,1.24-2,2.13-3.01,2.65s-2.26.79-3.74.79c-1.97,0-3.51-.59-4.63-1.77s-1.68-2.99-1.68-5.44v-11.88h7.19v10.27c0,1.17.22,2,.65,2.5s1.04.74,1.83.74c.86,0,1.56-.33,2.1-.98s.82-1.83.82-3.53v-8.98h7.15v18.67Z"/><path class="cls-1" d="M308.34,312.23h7.31v13.3l5.34-6.2h8.81l-6.7,6.54,7.08,12.13h-8.06l-3.78-7.48-2.7,2.63v4.85h-7.31v-25.77Z"/><path class="cls-1" d="M338.87,325.37l-6.84-.72c.26-1.2.63-2.14,1.12-2.82s1.19-1.28,2.1-1.78c.66-.36,1.56-.64,2.71-.84s2.39-.3,3.73-.3c2.14,0,3.87.12,5.17.36s2.38.74,3.25,1.5c.61.53,1.09,1.27,1.44,2.24s.53,1.89.53,2.77v8.24c0,.88.06,1.57.17,2.07s.35,1.13.73,1.91h-6.71c-.27-.48-.45-.85-.53-1.1s-.16-.65-.25-1.19c-.94.9-1.87,1.55-2.79,1.93-1.27.52-2.74.77-4.41.77-2.23,0-3.92-.52-5.07-1.55s-1.73-2.3-1.73-3.81c0-1.42.42-2.58,1.25-3.5s2.37-1.59,4.61-2.04c2.68-.54,4.42-.92,5.22-1.13s1.64-.5,2.53-.85c0-.88-.18-1.49-.54-1.85s-1-.53-1.92-.53c-1.17,0-2.05.19-2.64.56-.46.29-.83.84-1.11,1.65ZM345.07,329.14c-.98.35-2.01.66-3.08.93-1.45.39-2.37.77-2.76,1.14-.4.39-.6.83-.6,1.32,0,.56.2,1.02.59,1.38s.97.54,1.73.54,1.54-.19,2.22-.58,1.17-.86,1.46-1.42.43-1.28.43-2.17v-1.14Z"/><path class="cls-1" d="M356.36,319.33h6.66v3.04c1-1.24,2-2.13,3.02-2.66s2.26-.8,3.73-.8c1.98,0,3.53.59,4.65,1.77s1.68,3,1.68,5.46v11.87h-7.19v-10.27c0-1.17-.22-2-.65-2.49s-1.04-.73-1.83-.73c-.87,0-1.57.33-2.11.98s-.81,1.83-.81,3.53v8.96h-7.15v-18.67Z"/><path class="cls-1" d="M400.34,319.33h3.41v5.24h-3.41v13.43h-7.17v-13.43h-2.67v-5.24h2.67v-.84c0-.76.08-1.6.25-2.51s.47-1.66.92-2.24,1.08-1.05,1.9-1.41,2.01-.54,3.58-.54c1.25,0,3.08.15,5.47.44l-.79,4.32c-.86-.14-1.55-.21-2.07-.21-.64,0-1.11.11-1.39.33s-.48.56-.6,1.03c-.06.26-.09.8-.09,1.63Z"/><path class="cls-1" d="M406.46,319.33h6.7v3.06c.64-1.32,1.31-2.24,2-2.73s1.53-.75,2.54-.75,2.21.33,3.46.98l-2.21,5.1c-.84-.35-1.51-.53-2-.53-.94,0-1.66.39-2.18,1.16-.74,1.09-1.11,3.13-1.11,6.12v6.26h-7.19v-18.67Z"/><path class="cls-1" d="M422.63,312.23h7.15v4.87h-7.15v-4.87ZM422.63,319.33h7.15v18.67h-7.15v-18.67Z"/><path class="cls-1" d="M442.98,312.23v7.1h3.94v5.24h-3.94v6.61c0,.8.08,1.32.23,1.58.23.4.64.6,1.23.6.53,0,1.27-.15,2.21-.46l.53,4.94c-1.77.39-3.42.58-4.96.58-1.78,0-3.09-.23-3.94-.68s-1.47-1.15-1.87-2.08c-.4-.93-.61-2.44-.61-4.52v-6.57h-2.64v-5.24h2.64v-3.43l7.17-3.67Z"/><path class="cls-1" d="M470.3,319.33h3.41v5.24h-3.41v13.43h-7.17v-13.43h-2.67v-5.24h2.67v-.84c0-.76.08-1.6.25-2.51s.47-1.66.92-2.24,1.08-1.05,1.9-1.41,2.01-.54,3.58-.54c1.25,0,3.08.15,5.47.44l-.79,4.32c-.86-.14-1.55-.21-2.07-.21-.64,0-1.11.11-1.39.33s-.48.56-.6,1.03c-.06.26-.09.8-.09,1.63Z"/><path class="cls-1" d="M474.85,328.71c0-2.85.96-5.19,2.88-7.04s4.52-2.77,7.79-2.77c3.74,0,6.56,1.08,8.47,3.25,1.54,1.75,2.3,3.9,2.3,6.45,0,2.87-.95,5.22-2.86,7.06s-4.54,2.75-7.9,2.75c-3,0-5.43-.76-7.28-2.29-2.27-1.89-3.41-4.36-3.41-7.42ZM482.03,328.7c0,1.66.34,2.89,1.01,3.69s1.52,1.2,2.54,1.2,1.88-.39,2.54-1.18.99-2.04.99-3.78c0-1.62-.33-2.82-1-3.61s-1.49-1.19-2.48-1.19c-1.04,0-1.9.4-2.58,1.2s-1.02,2.02-1.02,3.67Z"/><path class="cls-1" d="M499.81,319.33h6.7v3.06c.64-1.32,1.31-2.24,2-2.73s1.53-.75,2.54-.75,2.21.33,3.46.98l-2.21,5.1c-.84-.35-1.51-.53-2-.53-.94,0-1.66.39-2.18,1.16-.74,1.09-1.11,3.13-1.11,6.12v6.26h-7.19v-18.67Z"/><path class="cls-1" d="M526.15,312.23v7.1h3.94v5.24h-3.94v6.61c0,.8.08,1.32.23,1.58.23.4.64.6,1.23.6.53,0,1.27-.15,2.21-.46l.53,4.94c-1.77.39-3.42.58-4.96.58-1.78,0-3.09-.23-3.94-.68s-1.47-1.15-1.87-2.08c-.4-.93-.61-2.44-.61-4.52v-6.57h-2.64v-5.24h2.64v-3.43l7.17-3.67Z"/><path class="cls-1" d="M532.23,332.81l7.1-.67c.29.84.7,1.45,1.23,1.81s1.23.54,2.11.54c.96,0,1.71-.2,2.23-.61.41-.3.62-.68.62-1.14,0-.51-.27-.91-.81-1.19-.39-.2-1.41-.44-3.08-.74-2.48-.43-4.21-.83-5.18-1.2-.97-.37-1.78-.99-2.44-1.87s-.99-1.88-.99-3c0-1.23.36-2.29,1.07-3.18.71-.89,1.7-1.55,2.95-1.99s2.94-.66,5.04-.66c2.23,0,3.87.17,4.93.51s1.95.87,2.65,1.58,1.3,1.68,1.77,2.9l-6.79.67c-.18-.6-.47-1.04-.88-1.32-.56-.38-1.24-.56-2.04-.56s-1.4.14-1.77.43-.55.63-.55,1.04c0,.46.23.8.7,1.04s1.49.44,3.06.63c2.38.27,4.15.64,5.31,1.12s2.05,1.17,2.66,2.05.92,1.87.92,2.93-.33,2.12-.98,3.14c-.65,1.02-1.68,1.83-3.08,2.43s-3.31.9-5.72.9c-3.41,0-5.84-.49-7.29-1.46s-2.38-2.36-2.79-4.15Z"/><path class="cls-1" d="M588.3,330.42h-13.55c.13,1.12.4,1.96.83,2.51.64.83,1.49,1.25,2.53,1.25.59,0,1.09-.13,1.52-.4s.85-.72,1.26-1.36l6.98.62c-.95,1.77-2.18,3.11-3.68,4.02s-3.52,1.36-6.04,1.36c-1.93,0-3.6-.28-4.99-.84-1.05-.42-2.07-1.12-3.04-2.11-1.44,1.05-2.81,1.81-4.1,2.27s-2.73.69-4.32.69c-2.38,0-4.17-.5-5.36-1.5s-1.79-2.31-1.79-3.93c0-.81.19-1.57.56-2.29s.85-1.28,1.42-1.71c.76-.55,1.59-.98,2.48-1.28.41-.14,1.41-.36,3.01-.67s2.62-.52,3.08-.63c.79-.2,1.7-.47,2.74-.83-.02-.93-.21-1.56-.57-1.9-.36-.34-1.01-.51-1.96-.51-1,0-1.74.18-2.23.53-.49.35-.84.92-1.04,1.68l-6.87-.78c.34-1.24.74-2.18,1.2-2.81.62-.87,1.57-1.56,2.84-2.1s3.06-.8,5.37-.8c1.85,0,3.38.16,4.57.49.86.23,1.8.69,2.83,1.35,1.08-.69,2.06-1.17,2.94-1.44s1.93-.41,3.14-.41c1.8,0,3.35.26,4.65.77s2.35,1.22,3.17,2.1,1.41,1.77,1.76,2.65c.46,1.16.69,2.77.69,4.82v1.18ZM567.82,329.08l-2.2.72c-.28.09-.53.16-.74.19-1.16.22-1.97.56-2.43,1s-.69.91-.69,1.39c0,.54.19,1,.58,1.37s.9.56,1.53.56,1.31-.16,1.99-.49,1.2-.83,1.56-1.49c.27-.48.4-1.12.4-1.92v-1.34ZM581.17,326.99c-.09-1.21-.4-2.14-.92-2.81s-1.26-1-2.21-1c-.84,0-1.57.3-2.17.91s-.99,1.58-1.17,2.9h6.47Z"/><path class="cls-1" d="M600.12,312.23v7.1h3.94v5.24h-3.94v6.61c0,.8.08,1.32.23,1.58.23.4.64.6,1.23.6.53,0,1.27-.15,2.21-.46l.53,4.94c-1.77.39-3.42.58-4.96.58-1.78,0-3.09-.23-3.94-.68s-1.47-1.15-1.87-2.08c-.4-.93-.61-2.44-.61-4.52v-6.57h-2.64v-5.24h2.64v-3.43l7.17-3.67Z"/><path class="cls-1" d="M616.09,312.23v7.1h3.94v5.24h-3.94v6.61c0,.8.08,1.32.23,1.58.23.4.64.6,1.23.6.53,0,1.27-.15,2.21-.46l.53,4.94c-1.77.39-3.42.58-4.96.58-1.78,0-3.09-.23-3.94-.68s-1.47-1.15-1.87-2.08c-.4-.93-.61-2.44-.61-4.52v-6.57h-2.64v-5.24h2.64v-3.43l7.17-3.67Z"/><path class="cls-1" d="M644.17,330.44h-14.34c.13,1.15.44,2,.93,2.57.69.81,1.59,1.21,2.71,1.21.7,0,1.37-.18,2-.53.39-.22.8-.62,1.25-1.18l7.05.65c-1.08,1.88-2.38,3.22-3.9,4.03s-3.71,1.22-6.56,1.22c-2.47,0-4.42-.35-5.84-1.05s-2.59-1.8-3.52-3.32-1.4-3.3-1.4-5.35c0-2.92.93-5.28,2.8-7.08s4.45-2.71,7.74-2.71c2.67,0,4.78.4,6.33,1.21s2.72,1.98,3.53,3.52,1.21,3.53,1.21,5.99v.81ZM636.89,327.01c-.14-1.38-.51-2.37-1.12-2.97s-1.4-.9-2.38-.9c-1.14,0-2.04.45-2.72,1.35-.43.56-.71,1.4-.83,2.51h7.05Z"/><path class="cls-1" d="M668.09,312.23v7.1h3.94v5.24h-3.94v6.61c0,.8.08,1.32.23,1.58.23.4.64.6,1.23.6.53,0,1.27-.15,2.21-.46l.53,4.94c-1.77.39-3.42.58-4.96.58-1.78,0-3.09-.23-3.94-.68s-1.47-1.15-1.87-2.08c-.4-.93-.61-2.44-.61-4.52v-6.57h-2.64v-5.24h2.64v-3.43l7.17-3.67Z"/><path class="cls-1" d="M675.7,312.23h7.15v4.87h-7.15v-4.87ZM675.7,319.33h7.15v18.67h-7.15v-18.67Z"/><path class="cls-1" d="M687.67,312.23h7.17v25.77h-7.17v-25.77Z"/><path class="cls-1" d="M710.15,332.81l7.1-.67c.29.84.7,1.45,1.23,1.81s1.23.54,2.11.54c.96,0,1.71-.2,2.23-.61.41-.3.62-.68.62-1.14,0-.51-.27-.91-.81-1.19-.39-.2-1.41-.44-3.08-.74-2.48-.43-4.21-.83-5.18-1.2-.97-.37-1.78-.99-2.44-1.87s-.99-1.88-.99-3c0-1.23.36-2.29,1.07-3.18.71-.89,1.7-1.55,2.95-1.99s2.94-.66,5.04-.66c2.23,0,3.87.17,4.93.51s1.95.87,2.65,1.58,1.3,1.68,1.77,2.9l-6.79.67c-.18-.6-.47-1.04-.88-1.32-.56-.38-1.24-.56-2.04-.56s-1.4.14-1.77.43-.55.63-.55,1.04c0,.46.23.8.7,1.04s1.49.44,3.06.63c2.38.27,4.15.64,5.31,1.12s2.05,1.17,2.66,2.05.92,1.87.92,2.93-.33,2.12-.98,3.14c-.65,1.02-1.68,1.83-3.08,2.43s-3.31.9-5.72.9c-3.41,0-5.84-.49-7.29-1.46s-2.38-2.36-2.79-4.15Z"/><path class="cls-1" d="M733.67,312.23h7.15v4.87h-7.15v-4.87ZM733.67,319.33h7.15v18.67h-7.15v-18.67Z"/><path class="cls-1" d="M754.03,312.23v7.1h3.94v5.24h-3.94v6.61c0,.8.08,1.32.23,1.58.23.4.64.6,1.23.6.53,0,1.27-.15,2.21-.46l.53,4.94c-1.77.39-3.42.58-4.96.58-1.78,0-3.09-.23-3.94-.68s-1.47-1.15-1.87-2.08c-.4-.93-.61-2.44-.61-4.52v-6.57h-2.64v-5.24h2.64v-3.43l7.17-3.67Z"/><path class="cls-1" d="M782.1,330.44h-14.34c.13,1.15.44,2,.93,2.57.69.81,1.59,1.21,2.71,1.21.7,0,1.37-.18,2-.53.39-.22.8-.62,1.25-1.18l7.05.65c-1.08,1.88-2.38,3.22-3.9,4.03s-3.71,1.22-6.56,1.22c-2.47,0-4.42-.35-5.84-1.05s-2.59-1.8-3.52-3.32-1.4-3.3-1.4-5.35c0-2.92.93-5.28,2.8-7.08s4.45-2.71,7.74-2.71c2.67,0,4.78.4,6.33,1.21s2.72,1.98,3.53,3.52,1.21,3.53,1.21,5.99v.81ZM774.82,327.01c-.14-1.38-.51-2.37-1.12-2.97s-1.4-.9-2.38-.9c-1.14,0-2.04.45-2.72,1.35-.43.56-.71,1.4-.83,2.51h7.05Z"/><path class="cls-1" d="M794.02,312.23v7.1h3.94v5.24h-3.94v6.61c0,.8.08,1.32.23,1.58.23.4.64.6,1.23.6.53,0,1.27-.15,2.21-.46l.53,4.94c-1.77.39-3.42.58-4.96.58-1.78,0-3.09-.23-3.94-.68s-1.47-1.15-1.87-2.08c-.4-.93-.61-2.44-.61-4.52v-6.57h-2.64v-5.24h2.64v-3.43l7.17-3.67Z"/><path class="cls-1" d="M801.38,330.82h7.65v7.17h-7.65v-7.17Z"/><path class="cls-1" d="M459.98,122.56h13.27v32.37h20.71v10.58h-33.98v-42.95Z"/><path class="cls-1" d="M533.75,152.92h-23.91c.21,1.91.73,3.34,1.55,4.28,1.15,1.35,2.66,2.02,4.51,2.02,1.17,0,2.29-.29,3.34-.88.64-.37,1.34-1.03,2.08-1.96l11.75,1.08c-1.8,3.12-3.97,5.37-6.5,6.72-2.54,1.36-6.18,2.04-10.93,2.04-4.12,0-7.36-.58-9.73-1.74-2.36-1.16-4.32-3.01-5.87-5.54-1.55-2.53-2.33-5.5-2.33-8.92,0-4.86,1.56-8.8,4.67-11.81,3.12-3.01,7.42-4.51,12.91-4.51,4.45,0,7.97.67,10.55,2.02s4.54,3.3,5.89,5.86c1.35,2.56,2.02,5.89,2.02,9.99v1.35ZM521.62,147.2c-.23-2.3-.85-3.96-1.86-4.95-1.01-1-2.33-1.49-3.97-1.49-1.89,0-3.41.75-4.54,2.26-.72.94-1.18,2.33-1.38,4.19h11.75Z"/><path class="cls-1" d="M534.16,134.4h12.41l6.04,19.72,6.26-19.72h12.03l-13.22,31.11h-10.58l-12.94-31.11Z"/><path class="cls-1" d="M607.32,152.92h-23.91c.21,1.91.73,3.34,1.55,4.28,1.15,1.35,2.66,2.02,4.51,2.02,1.17,0,2.29-.29,3.34-.88.64-.37,1.34-1.03,2.08-1.96l11.75,1.08c-1.8,3.12-3.97,5.37-6.5,6.72-2.54,1.36-6.18,2.04-10.93,2.04-4.12,0-7.36-.58-9.73-1.74-2.36-1.16-4.32-3.01-5.87-5.54-1.55-2.53-2.33-5.5-2.33-8.92,0-4.86,1.56-8.8,4.67-11.81,3.12-3.01,7.42-4.51,12.91-4.51,4.45,0,7.97.67,10.55,2.02s4.54,3.3,5.89,5.86c1.35,2.56,2.02,5.89,2.02,9.99v1.35ZM595.19,147.2c-.23-2.3-.85-3.96-1.86-4.95-1.01-1-2.33-1.49-3.97-1.49-1.89,0-3.41.75-4.54,2.26-.72.94-1.18,2.33-1.38,4.19h11.75Z"/><path class="cls-1" d="M613.21,122.56h11.95v42.95h-11.95v-42.95Z"/><path class="cls-1" d="M675.99,153.33l11.34,1.29c-.62,2.36-1.65,4.41-3.08,6.14s-3.25,3.07-5.46,4.03c-2.22.96-5.03,1.44-8.45,1.44s-6.05-.31-8.25-.92-4.09-1.61-5.67-2.99-2.82-2.99-3.72-4.84c-.9-1.85-1.35-4.31-1.35-7.38s.55-5.86,1.64-7.99c.8-1.56,1.89-2.96,3.28-4.2,1.39-1.24,2.81-2.16,4.28-2.77,2.32-.96,5.3-1.43,8.94-1.43,5.08,0,8.95.91,11.62,2.72s4.54,4.47,5.61,7.97l-11.22,1.49c-.35-1.33-.99-2.33-1.92-3-.93-.67-2.17-1.01-3.74-1.01-1.97,0-3.57.71-4.79,2.12-1.22,1.41-1.83,3.55-1.83,6.42,0,2.55.6,4.49,1.82,5.82,1.21,1.33,2.75,1.99,4.63,1.99,1.56,0,2.88-.4,3.94-1.2,1.06-.8,1.86-2.03,2.39-3.69Z"/><path class="cls-1" d="M691.34,150.04c0-4.75,1.6-8.66,4.8-11.73s7.53-4.61,12.98-4.61c6.23,0,10.94,1.81,14.12,5.42,2.56,2.91,3.84,6.49,3.84,10.75,0,4.79-1.59,8.71-4.76,11.76-3.17,3.06-7.56,4.58-13.17,4.58-5,0-9.04-1.27-12.13-3.81-3.79-3.14-5.68-7.27-5.68-12.36ZM703.29,150.01c0,2.77.56,4.82,1.68,6.15,1.12,1.33,2.53,1.99,4.23,1.99s3.13-.65,4.23-1.96c1.1-1.31,1.66-3.41,1.66-6.3,0-2.7-.56-4.7-1.67-6.02s-2.49-1.98-4.13-1.98c-1.74,0-3.17.67-4.31,2.01-1.13,1.34-1.7,3.37-1.7,6.11Z"/><path class="cls-1" d="M732.91,134.4h11.13v4.54c1.6-1.89,3.22-3.24,4.86-4.04,1.63-.8,3.6-1.2,5.91-1.2,2.48,0,4.45.44,5.9,1.32,1.45.88,2.63,2.19,3.55,3.93,1.87-2.03,3.58-3.41,5.12-4.15s3.44-1.1,5.71-1.1c3.33,0,5.94.99,7.81,2.97,1.87,1.98,2.81,5.08,2.81,9.3v19.54h-11.95v-17.72c0-1.41-.27-2.45-.82-3.13-.8-1.07-1.79-1.61-2.98-1.61-1.4,0-2.53.51-3.39,1.52-.86,1.02-1.29,2.65-1.29,4.89v16.05h-11.95v-17.14c0-1.37-.08-2.29-.24-2.78-.25-.78-.7-1.41-1.32-1.89-.63-.48-1.36-.72-2.2-.72-1.37,0-2.5.52-3.38,1.55-.88,1.04-1.32,2.73-1.32,5.1v15.88h-11.95v-31.11Z"/><path class="cls-1" d="M792.88,177.35v-42.95h11.16v4.6c1.54-1.93,2.96-3.24,4.25-3.93,1.74-.92,3.66-1.38,5.77-1.38,4.16,0,7.38,1.59,9.65,4.78,2.27,3.18,3.41,7.12,3.41,11.81,0,5.18-1.24,9.13-3.72,11.85s-5.62,4.09-9.4,4.09c-1.84,0-3.51-.31-5.02-.94-1.51-.62-2.87-1.55-4.06-2.78v14.85h-12.04ZM804.84,150.04c0,2.46.52,4.29,1.55,5.48,1.04,1.19,2.34,1.79,3.93,1.79,1.39,0,2.55-.57,3.49-1.71s1.41-3.08,1.41-5.82c0-2.52-.49-4.37-1.46-5.55-.98-1.18-2.17-1.77-3.57-1.77-1.52,0-2.79.6-3.81,1.79-1.02,1.19-1.52,3.12-1.52,5.8Z"/><path class="cls-1" d="M833.26,122.56h11.95v42.95h-11.95v-42.95Z"/><path class="cls-1" d="M887.37,152.92h-23.91c.21,1.91.73,3.34,1.55,4.28,1.15,1.35,2.66,2.02,4.51,2.02,1.17,0,2.29-.29,3.34-.88.64-.37,1.34-1.03,2.08-1.96l11.75,1.08c-1.8,3.12-3.96,5.37-6.5,6.72s-6.18,2.04-10.93,2.04c-4.12,0-7.36-.58-9.73-1.74s-4.32-3.01-5.87-5.54c-1.55-2.53-2.33-5.5-2.33-8.92,0-4.86,1.56-8.8,4.67-11.81,3.12-3.01,7.42-4.51,12.91-4.51,4.45,0,7.97.67,10.55,2.02s4.54,3.3,5.89,5.86c1.35,2.56,2.02,5.89,2.02,9.99v1.35ZM875.24,147.2c-.23-2.3-.85-3.96-1.86-4.95s-2.33-1.49-3.97-1.49c-1.89,0-3.41.75-4.54,2.26-.72.94-1.18,2.33-1.38,4.19h11.75Z"/><path class="cls-1" d="M907.23,122.56v11.84h6.56v8.73h-6.56v11.02c0,1.33.13,2.2.38,2.63.39.66,1.07.99,2.05.99.88,0,2.11-.25,3.69-.76l.88,8.23c-2.95.64-5.7.97-8.26.97-2.97,0-5.16-.38-6.56-1.14s-2.45-1.92-3.12-3.47-1.01-4.06-1.01-7.53v-10.94h-4.39v-8.73h4.39v-5.71l11.95-6.12Z"/><path class="cls-1" d="M954.02,152.92h-23.91c.21,1.91.73,3.34,1.55,4.28,1.15,1.35,2.66,2.02,4.51,2.02,1.17,0,2.29-.29,3.34-.88.64-.37,1.34-1.03,2.08-1.96l11.75,1.08c-1.8,3.12-3.96,5.37-6.5,6.72s-6.18,2.04-10.93,2.04c-4.12,0-7.36-.58-9.73-1.74s-4.32-3.01-5.87-5.54c-1.55-2.53-2.33-5.5-2.33-8.92,0-4.86,1.56-8.8,4.67-11.81,3.12-3.01,7.42-4.51,12.91-4.51,4.45,0,7.97.67,10.55,2.02s4.54,3.3,5.89,5.86c1.35,2.56,2.02,5.89,2.02,9.99v1.35ZM941.89,147.2c-.23-2.3-.85-3.96-1.86-4.95s-2.33-1.49-3.97-1.49c-1.89,0-3.41.75-4.54,2.26-.72.94-1.18,2.33-1.38,4.19h11.75Z"/><image width="1166" height="1258" transform="translate(349 378) scale(.26)" xlink:href="Artboard 1-1.png"/><image width="386" height="743" transform="translate(1163 95) scale(.39)" xlink:href="Artboard 1-2.png"/></svg>