<?xml version="1.0" encoding="UTF-8"?><svg id="Layer_1" xmlns="http://www.w3.org/2000/svg" width="1366" height="768" xmlns:xlink="http://www.w3.org/1999/xlink" viewBox="0 0 1366 768"><defs><style>.cls-1{fill:#000;}.cls-1,.cls-2{stroke-width:0px;}.cls-2{fill:#fbf21a;}</style><image id="image" width="800" height="800" xlink:href="../../Downloads/Stoli-The-Original-Vodka.jpg"/></defs><rect class="cls-2" x=".5" y=".5" width="1365" height="767"/><path class="cls-1" d="M1365,1v766H1V1h1364M1366,0H0v768h1366V0h0Z"/><path class="cls-1" d="M393.88,157.31l-6.59,56.92h-18.48c-1.69-8.74-3.18-18.69-4.48-29.85-.59,4.78-1.97,14.73-4.13,29.85h-18.37l-6.63-56.92h14.38l1.56,19.86,1.51,19.2c.55-9.94,1.91-22.96,4.09-39.06h15.37c.2,1.66.74,7.92,1.61,18.77l1.63,21.66c.84-13.78,2.22-27.25,4.13-40.43h14.38Z"/><path class="cls-1" d="M410.58,157.31v12.81c1.22-1.13,2.54-1.97,3.96-2.54,1.42-.56,2.94-.85,4.55-.85,2.48,0,4.6.63,6.35,1.9,1.75,1.27,2.81,2.72,3.2,4.38s.58,4.67.58,9.05v32.17h-14.2v-32.84c0-2.72-.14-4.46-.4-5.24-.27-.77-.87-1.16-1.81-1.16-.87,0-1.45.4-1.76,1.2-.3.8-.46,2.38-.46,4.75v33.29h-14.2v-56.92h14.2Z"/><path class="cls-1" d="M466.23,183.96v11.43c0,4.2-.21,7.27-.63,9.23-.42,1.96-1.32,3.79-2.71,5.48-1.38,1.7-3.16,2.95-5.33,3.76s-4.66,1.21-7.47,1.21c-3.14,0-5.8-.35-7.98-1.04s-3.87-1.73-5.08-3.13c-1.21-1.39-2.07-3.08-2.58-5.06-.52-1.98-.77-4.95-.77-8.91v-11.95c0-4.34.47-7.72,1.41-10.16.94-2.44,2.62-4.39,5.06-5.87s5.55-2.21,9.35-2.21c3.19,0,5.92.47,8.21,1.42s4.05,2.19,5.29,3.71c1.24,1.52,2.09,3.09,2.55,4.71s.69,4.08.69,7.38ZM452.03,180.45c0-2.39-.13-3.9-.39-4.52-.26-.62-.81-.93-1.65-.93s-1.41.31-1.69.93c-.28.62-.42,2.13-.42,4.52v21.06c0,2.2.14,3.64.42,4.31s.83,1,1.65,1,1.4-.3,1.67-.91c.27-.61.4-1.92.4-3.94v-21.52Z"/><path class="cls-1" d="M515.38,174.54h-13.75v-4.22c0-1.97-.18-3.22-.53-3.76-.35-.54-.94-.81-1.76-.81-.89,0-1.56.36-2.02,1.09-.46.73-.69,1.83-.69,3.31,0,1.9.26,3.33.77,4.29.49.96,1.88,2.12,4.18,3.48,6.59,3.91,10.74,7.12,12.45,9.63,1.71,2.51,2.57,6.55,2.57,12.13,0,4.06-.47,7.04-1.42,8.96-.95,1.92-2.78,3.53-5.5,4.83s-5.88,1.95-9.49,1.95c-3.96,0-7.34-.75-10.14-2.25s-4.63-3.41-5.5-5.73-1.3-5.61-1.3-9.88v-3.73h13.75v6.93c0,2.13.19,3.5.58,4.11.39.61,1.07.91,2.06.91s1.72-.39,2.2-1.16.72-1.92.72-3.45c0-3.35-.46-5.54-1.37-6.57-.94-1.03-3.25-2.75-6.93-5.17-3.68-2.44-6.12-4.21-7.31-5.31-1.2-1.1-2.19-2.62-2.97-4.57-.79-1.95-1.18-4.43-1.18-7.45,0-4.36.56-7.55,1.67-9.56,1.11-2.02,2.91-3.59,5.4-4.73,2.48-1.14,5.48-1.71,9-1.71,3.84,0,7.12.62,9.83,1.86,2.71,1.24,4.5,2.81,5.38,4.69.88,1.89,1.32,5.09,1.32,9.62v2.25Z"/><path class="cls-1" d="M535.81,161.36v7.35h3.83v7.38h-3.83v24.96c0,3.07.16,4.78.47,5.13s1.63.53,3.96.53v7.52h-5.73c-3.23,0-5.54-.13-6.93-.4-1.38-.27-2.6-.89-3.66-1.86-1.05-.97-1.71-2.09-1.97-3.34-.26-1.25-.39-4.2-.39-8.84v-23.7h-3.06v-7.38h3.06v-7.35h14.24Z"/><path class="cls-1" d="M574.9,183.96v11.43c0,4.2-.21,7.27-.63,9.23-.42,1.96-1.32,3.79-2.71,5.48-1.38,1.7-3.16,2.95-5.33,3.76s-4.66,1.21-7.47,1.21c-3.14,0-5.8-.35-7.98-1.04s-3.87-1.73-5.08-3.13c-1.21-1.39-2.07-3.08-2.58-5.06-.52-1.98-.77-4.95-.77-8.91v-11.95c0-4.34.47-7.72,1.41-10.16.94-2.44,2.62-4.39,5.06-5.87s5.55-2.21,9.35-2.21c3.19,0,5.92.47,8.21,1.42s4.05,2.19,5.29,3.71c1.24,1.52,2.09,3.09,2.55,4.71s.69,4.08.69,7.38ZM560.7,180.45c0-2.39-.13-3.9-.39-4.52-.26-.62-.81-.93-1.65-.93s-1.41.31-1.69.93c-.28.62-.42,2.13-.42,4.52v21.06c0,2.2.14,3.64.42,4.31s.83,1,1.65,1,1.4-.3,1.67-.91c.27-.61.4-1.92.4-3.94v-21.52Z"/><path class="cls-1" d="M594.2,157.31v56.92h-14.62v-56.92h14.62Z"/><path class="cls-1" d="M613.92,157.31v7.42h-14.62v-7.42h14.62ZM613.92,167.58v46.65h-14.62v-46.65h14.62Z"/><path class="cls-1" d="M646.69,161.36v7.35h3.83v7.38h-3.83v24.96c0,3.07.16,4.78.47,5.13s1.63.53,3.96.53v7.52h-5.73c-3.23,0-5.54-.13-6.93-.4-1.38-.27-2.6-.89-3.66-1.86-1.05-.97-1.71-2.09-1.97-3.34-.26-1.25-.39-4.2-.39-8.84v-23.7h-3.06v-7.38h3.06v-7.35h14.24Z"/><path class="cls-1" d="M667.85,157.31v12.81c1.22-1.13,2.54-1.97,3.96-2.54,1.42-.56,2.94-.85,4.55-.85,2.48,0,4.6.63,6.35,1.9s2.81,2.72,3.2,4.38.58,4.67.58,9.05v32.17h-14.2v-32.84c0-2.72-.13-4.46-.4-5.24s-.87-1.16-1.81-1.16c-.87,0-1.45.4-1.76,1.2-.3.8-.46,2.38-.46,4.75v33.29h-14.2v-56.92h14.2Z"/><path class="cls-1" d="M723.54,191.73h-18.39v10.09c0,2.11.15,3.47.46,4.08.3.61.89.91,1.76.91,1.08,0,1.8-.4,2.16-1.21s.54-2.37.54-4.69v-6.15h13.46v3.45c0,2.88-.18,5.1-.54,6.64s-1.21,3.2-2.55,4.96-3.03,3.08-5.08,3.96-4.62,1.32-7.72,1.32-5.65-.43-7.95-1.3-4.08-2.06-5.36-3.57-2.16-3.18-2.65-4.99c-.49-1.82-.74-4.46-.74-7.93v-13.61c0-4.08.55-7.29,1.65-9.65s2.91-4.16,5.41-5.41c2.51-1.25,5.39-1.88,8.65-1.88,3.98,0,7.27.76,9.86,2.27s4.41,3.52,5.45,6.01,1.56,6.01,1.56,10.53v6.19ZM709.3,184.14v-3.41c0-2.41-.13-3.97-.39-4.68s-.79-1.05-1.58-1.05c-.98,0-1.59.3-1.83.9s-.35,2.21-.35,4.83v3.41h4.15Z"/><path class="cls-1" d="M770.26,167.58l-6.64,46.65h-18.56l-7.14-46.65h12.68l4,34.07c.31-2.51.85-8.61,1.6-18.31.4-5.42.86-10.67,1.38-15.76h12.68Z"/><path class="cls-1" d="M804.47,183.96v11.43c0,4.2-.21,7.27-.63,9.23-.42,1.96-1.32,3.79-2.71,5.48-1.38,1.7-3.16,2.95-5.33,3.76s-4.66,1.21-7.47,1.21c-3.14,0-5.8-.35-7.98-1.04s-3.87-1.73-5.08-3.13c-1.21-1.39-2.07-3.08-2.58-5.06-.52-1.98-.77-4.95-.77-8.91v-11.95c0-4.34.47-7.72,1.41-10.16.94-2.44,2.62-4.39,5.06-5.87s5.55-2.21,9.35-2.21c3.19,0,5.92.47,8.21,1.42s4.05,2.19,5.29,3.71c1.24,1.52,2.09,3.09,2.55,4.71s.69,4.08.69,7.38ZM790.27,180.45c0-2.39-.13-3.9-.39-4.52-.26-.62-.81-.93-1.65-.93s-1.41.31-1.69.93c-.28.62-.42,2.13-.42,4.52v21.06c0,2.2.14,3.64.42,4.31s.83,1,1.65,1,1.4-.3,1.67-.91c.27-.61.4-1.92.4-3.94v-21.52Z"/><path class="cls-1" d="M841.46,157.31v56.92h-14.2v-3.38c-1.36,1.41-2.79,2.47-4.29,3.17-1.5.7-3.07,1.06-4.71,1.06-2.2,0-4.11-.58-5.73-1.74s-2.65-2.5-3.11-4.03c-.46-1.52-.69-4.01-.69-7.45v-21.83c0-3.59.23-6.13.69-7.63.46-1.5,1.51-2.82,3.15-3.96,1.64-1.14,3.6-1.71,5.87-1.71,1.76,0,3.37.32,4.83.95,1.46.63,2.79,1.59,3.99,2.85v-13.23h14.2ZM827.25,179.32c0-1.71-.15-2.86-.44-3.45-.29-.59-.87-.88-1.74-.88s-1.41.26-1.71.79-.44,1.71-.44,3.53v22.85c0,1.9.14,3.15.42,3.74s.82.9,1.62.9c.91,0,1.52-.33,1.83-1s.46-2.3.46-4.9v-21.59Z"/><path class="cls-1" d="M877.14,167.58l-5.77,18.58,7.49,28.07h-13.66l-4.43-20.33-.02,20.33h-14.2v-56.92h14.2l.02,23.89,4.43-13.63h11.94Z"/><path class="cls-1" d="M893.66,185.65h-13.32v-3.13c0-3.61.42-6.39,1.25-8.35.83-1.96,2.5-3.69,5.01-5.19,2.51-1.5,5.77-2.25,9.77-2.25,4.8,0,8.43.85,10.86,2.55,2.44,1.7,3.9,3.79,4.39,6.26.49,2.47.74,7.56.74,15.28v23.41h-13.82v-4.16c-.87,1.67-1.99,2.92-3.36,3.75-1.37.83-3.01,1.25-4.9,1.25-2.48,0-4.76-.7-6.84-2.09s-3.11-4.45-3.11-9.16v-3.83c0-3.49.55-5.87,1.65-7.14s3.83-2.74,8.19-4.43c4.66-1.83,7.16-3.06,7.49-3.69s.49-1.92.49-3.87c0-2.44-.18-4.03-.54-4.76s-.97-1.11-1.81-1.11c-.96,0-1.56.31-1.79.93-.23.62-.35,2.23-.35,4.83v4.89ZM898.16,192.05c-2.27,1.66-3.59,3.06-3.96,4.18s-.54,2.74-.54,4.85c0,2.41.16,3.97.47,4.68s.94,1.05,1.88,1.05,1.47-.28,1.74-.83c.27-.55.4-2,.4-4.34v-9.6Z"/><path class="cls-1" d="M931.88,175.66h-14.2c.05-4.99.47-8.64,1.27-10.93.8-2.3,2.53-4.31,5.19-6.03s6.05-2.58,10.18-2.58c2.98,0,5.58.47,7.8,1.41,2.23.94,4,2.24,5.31,3.92,1.31,1.68,2.27,3.49,2.88,5.43.61,1.95.91,4.99.91,9.14v6.96c0,3.16-.29,5.71-.88,7.63-.59,1.92-1.86,3.61-3.83,5.06-1.97,1.45-4.28,2.18-6.93,2.18-3.45,0-6.01-1.35-7.7-4.04v6.12h-13.25v-15.64h12.94c.05,2.16.82,3.23,2.32,3.23,1.17,0,1.92-.47,2.23-1.42s.47-3.27.47-6.98v-9.46c0-2.09-.15-3.49-.44-4.2-.29-.71-.87-1.07-1.74-1.07-1.08,0-1.77.47-2.07,1.42s-.46,3.09-.46,6.42v3.45ZM931.88,202.84v11.39h-13.25v-11.39h13.25Z"/><path class="cls-1" d="M56.32,281.58l4.23,37.61h-7.56l-.4-6.76h-2.65l-.44,6.76h-7.65l3.77-37.61h10.7ZM50.98,271.2c.98,0,1.85.47,2.58,1.41.74.94,1.11,2.1,1.11,3.5s-.36,2.5-1.09,3.45c-.73.95-1.59,1.43-2.6,1.43s-1.91-.48-2.63-1.43c-.72-.95-1.08-2.1-1.08-3.45s.36-2.5,1.09-3.46,1.6-1.44,2.62-1.44ZM50.95,274.27c-.39,0-.72.19-1.01.56s-.43.83-.43,1.37.14.98.43,1.35.62.56,1.01.56.74-.19,1.03-.56.43-.82.43-1.35-.14-1-.43-1.37-.63-.56-1.03-.56ZM52.4,305.76c-.37-4.26-.75-9.52-1.13-15.8-.75,7.2-1.23,12.47-1.42,15.8h2.55Z"/><path class="cls-1" d="M68.7,281.58v8.46c.61-.75,1.27-1.3,1.98-1.68s1.47-.56,2.28-.56c1.24,0,2.3.42,3.17,1.25.87.84,1.41,1.8,1.6,2.89s.29,3.09.29,5.98v21.25h-7.1v-21.7c0-1.8-.07-2.95-.2-3.46s-.44-.77-.91-.77c-.43,0-.73.26-.88.79s-.23,1.57-.23,3.14v22h-7.1v-37.61h7.1Z"/><path class="cls-1" d="M94.03,288.37l-.12,2.84c.52-1.13,1.15-1.98,1.89-2.55.74-.57,1.6-.85,2.58-.85,1.22,0,2.21.38,2.99,1.14s1.27,1.72,1.49,2.87c.22,1.15.33,3.08.33,5.77v21.6h-7.1v-21.35c0-2.12-.05-3.41-.16-3.88-.11-.46-.4-.7-.88-.7s-.82.27-.95.8c-.13.53-.19,1.96-.19,4.29v20.84h-7.1v-30.82h7.22Z"/><path class="cls-1" d="M121.72,304.32h-9.19v6.67c0,1.39.08,2.29.23,2.69s.45.6.88.6c.54,0,.9-.27,1.08-.8s.27-1.57.27-3.1v-4.06h6.73v2.28c0,1.9-.09,3.37-.27,4.39-.18,1.02-.61,2.11-1.27,3.28s-1.51,2.03-2.54,2.61c-1.03.58-2.31.87-3.86.87s-2.82-.29-3.97-.86-2.04-1.36-2.68-2.36-1.08-2.1-1.33-3.3c-.25-1.2-.37-2.95-.37-5.24v-8.99c0-2.69.28-4.82.83-6.38s1.45-2.75,2.71-3.58c1.25-.83,2.7-1.24,4.32-1.24,1.99,0,3.64.5,4.93,1.5,1.29,1,2.2,2.32,2.72,3.97s.78,3.97.78,6.96v4.09ZM114.6,299.31v-2.25c0-1.59-.06-2.62-.19-3.09-.13-.46-.39-.7-.79-.7-.49,0-.8.2-.91.59s-.18,1.46-.18,3.19v2.25h2.07Z"/><path class="cls-1" d="M131.56,288.37v24.39c0,2.86-.04,4.8-.13,5.82-.09,1.01-.36,1.9-.81,2.67s-1.05,1.34-1.81,1.71c-.76.37-1.89.56-3.4.56h-2.74v-4.92c.84,0,1.32-.12,1.42-.37.11-.25.16-1.8.16-4.65v-25.2h7.31ZM131.56,281.58v4.9h-7.31v-4.9h7.31Z"/><path class="cls-1" d="M138.84,311.52v7.67h-5.36v-7.67h5.36Z"/><path class="cls-1" d="M160.1,281.58l4.23,37.61h-7.56l-.4-6.76h-2.65l-.44,6.76h-7.65l3.77-37.61h10.7ZM156.18,305.76c-.37-4.26-.75-9.52-1.13-15.8-.75,7.2-1.23,12.47-1.42,15.8h2.55Z"/><path class="cls-1" d="M181.53,281.58v37.61h-7.1v-2.24c-.68.93-1.39,1.63-2.14,2.1s-1.54.7-2.36.7c-1.1,0-2.06-.38-2.87-1.15s-1.33-1.65-1.56-2.66c-.23-1.01-.34-2.65-.34-4.92v-14.42c0-2.37.11-4.05.34-5.04.23-.99.75-1.86,1.57-2.61.82-.75,1.8-1.13,2.94-1.13.88,0,1.68.21,2.42.63.73.42,1.4,1.05,2,1.89v-8.74h7.1ZM174.43,296.12c0-1.13-.07-1.89-.22-2.28-.15-.39-.44-.58-.87-.58s-.71.17-.85.52c-.15.35-.22,1.13-.22,2.33v15.1c0,1.25.07,2.08.21,2.47.14.4.41.59.81.59.46,0,.76-.22.91-.66.15-.44.23-1.52.23-3.24v-14.26Z"/><path class="cls-1" d="M190.43,300.3h-6.66v-2.07c0-2.38.21-4.22.62-5.52.42-1.29,1.25-2.44,2.5-3.43,1.25-.99,2.88-1.49,4.89-1.49,2.4,0,4.21.56,5.43,1.68,1.22,1.12,1.95,2.5,2.2,4.13s.37,5,.37,10.09v15.47h-6.91v-2.75c-.43,1.1-.99,1.93-1.68,2.48s-1.5.83-2.45.83c-1.24,0-2.38-.46-3.42-1.38-1.04-.92-1.56-2.94-1.56-6.05v-2.53c0-2.31.28-3.88.83-4.72.55-.84,1.92-1.81,4.1-2.93,2.33-1.21,3.58-2.02,3.74-2.44.16-.42.25-1.27.25-2.55,0-1.61-.09-2.66-.27-3.15s-.48-.73-.91-.73c-.48,0-.78.21-.9.62s-.18,1.48-.18,3.19v3.23ZM192.68,304.53c-1.14,1.1-1.8,2.02-1.98,2.76-.18.74-.27,1.81-.27,3.21,0,1.6.08,2.62.24,3.09.16.46.47.7.94.7s.74-.18.87-.55c.13-.36.2-1.32.2-2.87v-6.34Z"/><path class="cls-1" d="M209.24,288.37l-.12,2.93c.55-1.16,1.21-2.04,1.97-2.62s1.63-.87,2.6-.87c1.9,0,3.39,1.16,4.48,3.49.6-1.16,1.27-2.04,2.02-2.62s1.58-.87,2.5-.87c1.21,0,2.21.39,3,1.16.79.77,1.3,1.72,1.52,2.85.22,1.12.33,2.95.33,5.47v21.9h-6.89v-20.09c0-2.63-.07-4.26-.2-4.89-.13-.63-.45-.94-.94-.94s-.83.31-.98.93c-.15.62-.22,2.25-.22,4.9v20.09h-6.89v-19.58c0-3.02-.06-4.83-.17-5.44-.11-.6-.42-.91-.92-.91-.32,0-.59.16-.81.48-.22.32-.35.71-.37,1.16-.02.46-.04,1.43-.04,2.92v21.37h-6.89v-30.82h7.01Z"/><path class="cls-1" d="M252.41,304.32h-9.19v6.67c0,1.39.08,2.29.23,2.69s.45.6.88.6c.54,0,.9-.27,1.08-.8s.27-1.57.27-3.1v-4.06h6.73v2.28c0,1.9-.09,3.37-.27,4.39-.18,1.02-.61,2.11-1.27,3.28s-1.51,2.03-2.54,2.61c-1.03.58-2.31.87-3.86.87s-2.82-.29-3.97-.86-2.04-1.36-2.68-2.36-1.08-2.1-1.33-3.3c-.25-1.2-.37-2.95-.37-5.24v-8.99c0-2.69.28-4.82.83-6.38s1.45-2.75,2.71-3.58c1.25-.83,2.7-1.24,4.32-1.24,1.99,0,3.64.5,4.93,1.5,1.29,1,2.2,2.32,2.72,3.97s.78,3.97.78,6.96v4.09ZM245.29,299.31v-2.25c0-1.59-.06-2.62-.19-3.09-.13-.46-.39-.7-.79-.7-.49,0-.8.2-.91.59s-.18,1.46-.18,3.19v2.25h2.07Z"/><path class="cls-1" d="M261.83,288.37l-.28,4.05c1.03-2.9,2.53-4.44,4.48-4.61v10.85c-1.3,0-2.26.23-2.87.7-.61.46-.98,1.11-1.12,1.94-.14.83-.21,2.74-.21,5.73v12.17h-7.1v-30.82h7.1Z"/><path class="cls-1" d="M288.65,288.37l-3.32,30.82h-9.28l-3.57-30.82h6.34l2,22.51c.16-1.66.42-5.69.8-12.1.2-3.58.43-7.05.69-10.41h6.34Z"/><path class="cls-1" d="M305.78,304.32h-9.19v6.67c0,1.39.08,2.29.23,2.69s.45.6.88.6c.54,0,.9-.27,1.08-.8s.27-1.57.27-3.1v-4.06h6.73v2.28c0,1.9-.09,3.37-.27,4.39-.18,1.02-.61,2.11-1.27,3.28s-1.51,2.03-2.54,2.61c-1.03.58-2.31.87-3.86.87s-2.82-.29-3.97-.86-2.04-1.36-2.68-2.36-1.08-2.1-1.33-3.3c-.25-1.2-.37-2.95-.37-5.24v-8.99c0-2.69.28-4.82.83-6.38s1.45-2.75,2.71-3.58c1.25-.83,2.7-1.24,4.32-1.24,1.99,0,3.64.5,4.93,1.5,1.29,1,2.2,2.32,2.72,3.97s.78,3.97.78,6.96v4.09ZM298.66,299.31v-2.25c0-1.59-.06-2.62-.19-3.09-.13-.46-.39-.7-.79-.7-.49,0-.8.2-.91.59s-.18,1.46-.18,3.19v2.25h2.07Z"/><path class="cls-1" d="M324.25,281.58v37.61h-7.1v-2.24c-.68.93-1.39,1.63-2.14,2.1s-1.54.7-2.36.7c-1.1,0-2.06-.38-2.87-1.15s-1.33-1.65-1.56-2.66c-.23-1.01-.34-2.65-.34-4.92v-14.42c0-2.37.11-4.05.34-5.04.23-.99.75-1.86,1.57-2.61.82-.75,1.8-1.13,2.94-1.13.88,0,1.68.21,2.42.63.73.42,1.4,1.05,2,1.89v-8.74h7.1ZM317.15,296.12c0-1.13-.07-1.89-.22-2.28-.15-.39-.44-.58-.87-.58s-.71.17-.85.52c-.15.35-.22,1.13-.22,2.33v15.1c0,1.25.07,2.08.21,2.47.14.4.41.59.81.59.46,0,.76-.22.91-.66.15-.44.23-1.52.23-3.24v-14.26Z"/><path class="cls-1" d="M339.49,300.3h-6.66v-2.07c0-2.38.21-4.22.62-5.52.42-1.29,1.25-2.44,2.5-3.43,1.25-.99,2.88-1.49,4.89-1.49,2.4,0,4.21.56,5.43,1.68,1.22,1.12,1.95,2.5,2.2,4.13s.37,5,.37,10.09v15.47h-6.91v-2.75c-.43,1.1-.99,1.93-1.68,2.48s-1.5.83-2.45.83c-1.24,0-2.38-.46-3.42-1.38-1.04-.92-1.56-2.94-1.56-6.05v-2.53c0-2.31.28-3.88.83-4.72.55-.84,1.92-1.81,4.1-2.93,2.33-1.21,3.58-2.02,3.74-2.44.16-.42.25-1.27.25-2.55,0-1.61-.09-2.66-.27-3.15s-.48-.73-.91-.73c-.48,0-.78.21-.9.62s-.18,1.48-.18,3.19v3.23ZM341.74,304.53c-1.14,1.1-1.8,2.02-1.98,2.76-.18.74-.27,1.81-.27,3.21,0,1.6.08,2.62.24,3.09.16.46.47.7.94.7s.74-.18.87-.55c.13-.36.2-1.32.2-2.87v-6.34Z"/><path class="cls-1" d="M358.77,284.25v4.85h1.92v4.88h-1.92v16.49c0,2.03.08,3.16.24,3.39s.82.35,1.98.35v4.97h-2.87c-1.62,0-2.77-.09-3.46-.27-.69-.18-1.3-.59-1.83-1.23s-.86-1.38-.98-2.21c-.13-.83-.19-2.78-.19-5.84v-15.66h-1.53v-4.88h1.53v-4.85h7.12Z"/><path class="cls-1" d="M375.7,281.58v8.9c.59-.9,1.24-1.57,1.96-2.01s1.5-.66,2.35-.66c.97,0,1.82.2,2.53.6s1.26.97,1.63,1.7c.38.73.6,1.44.68,2.14s.11,2.18.11,4.46v13.89c0,2.26-.11,3.94-.34,5.05-.23,1.11-.76,2.07-1.61,2.88s-1.85,1.22-3.01,1.22c-.83,0-1.61-.24-2.33-.72s-1.38-1.2-1.98-2.16l-.46,2.33h-6.64v-37.61h7.1ZM377.86,297.12c0-1.59-.08-2.64-.23-3.12s-.45-.73-.9-.73-.71.21-.84.64c-.13.43-.19,1.5-.19,3.22v13.29c0,1.66.07,2.72.22,3.18.15.46.44.7.87.7s.74-.24.87-.72.2-1.63.2-3.46v-12.98Z"/><path class="cls-1" d="M394.62,281.58v37.61h-7.31v-37.61h7.31Z"/><path class="cls-1" d="M404.48,281.58v4.9h-7.31v-4.9h7.31ZM404.48,288.37v30.82h-7.31v-30.82h7.31Z"/><path class="cls-1" d="M421.72,288.37l-3.32,30.82h-9.28l-3.57-30.82h6.34l2,22.51c.16-1.66.42-5.69.8-12.1.2-3.58.43-7.05.69-10.41h6.34Z"/><path class="cls-1" d="M438.84,304.32h-9.19v6.67c0,1.39.08,2.29.23,2.69s.45.6.88.6c.54,0,.9-.27,1.08-.8s.27-1.57.27-3.1v-4.06h6.73v2.28c0,1.9-.09,3.37-.27,4.39-.18,1.02-.61,2.11-1.27,3.28s-1.51,2.03-2.54,2.61c-1.03.58-2.31.87-3.86.87s-2.82-.29-3.97-.86-2.04-1.36-2.68-2.36-1.08-2.1-1.33-3.3c-.25-1.2-.37-2.95-.37-5.24v-8.99c0-2.69.28-4.82.83-6.38s1.45-2.75,2.71-3.58c1.25-.83,2.7-1.24,4.32-1.24,1.99,0,3.64.5,4.93,1.5,1.29,1,2.2,2.32,2.72,3.97s.78,3.97.78,6.96v4.09ZM431.72,299.31v-2.25c0-1.59-.06-2.62-.19-3.09-.13-.46-.39-.7-.79-.7-.49,0-.8.2-.91.59s-.18,1.46-.18,3.19v2.25h2.07Z"/><path class="cls-1" d="M472.29,304.32h-9.26v6.23c0,1.58.08,2.6.23,3.05.15.46.47.69.97.69.53,0,.88-.23,1.07-.7.19-.46.28-1.42.28-2.88v-4.39h6.71v3.11c0,2.03-.23,3.74-.69,5.13-.46,1.39-1.3,2.61-2.52,3.64s-2.71,1.54-4.48,1.54c-1.64,0-3.04-.29-4.18-.88s-2.06-1.47-2.72-2.65c-.64,1.18-1.41,2.06-2.29,2.65s-1.87.88-2.97.88c-1.29,0-2.35-.35-3.19-1.05s-1.39-1.58-1.65-2.65-.4-2.82-.4-5.25c0-2.17.12-3.65.36-4.45s.74-1.51,1.49-2.14c.75-.63,2.04-1.37,3.88-2.22.97-.43,1.63-.8,1.97-1.09.34-.29.57-.66.7-1.1.13-.44.19-1.39.19-2.85,0-1.38-.07-2.34-.21-2.88-.14-.54-.4-.81-.79-.81s-.62.22-.73.67-.17,1.59-.17,3.41v2.95h-6.66v-2.3c0-1.7.09-3.04.27-4.02s.6-1.96,1.25-2.94,1.48-1.77,2.48-2.36,2.28-.88,3.84-.88c.87,0,1.71.14,2.51.42s1.58.7,2.32,1.25c.54-.56,1.17-.98,1.88-1.25s1.52-.42,2.41-.42c1.78,0,3.31.51,4.6,1.53,1.28,1.02,2.19,2.33,2.72,3.93.53,1.6.79,3.96.79,7.08v3.97ZM455.93,304.72c-.9.87-1.51,1.65-1.82,2.36-.31.71-.47,2.02-.47,3.94,0,1.19.09,2.04.27,2.53s.51.74.99.74c.34,0,.59-.15.76-.46.16-.31.25-.77.25-1.37l.02-2.76v-4.97ZM465.19,299.31v-2.79c0-1.44-.1-2.34-.3-2.71-.2-.36-.46-.55-.77-.55-.39,0-.67.21-.83.63-.17.42-.25,1.29-.25,2.62v2.79h2.16Z"/><path class="cls-1" d="M490.79,281.58v37.61h-7.1v-2.24c-.68.93-1.39,1.63-2.14,2.1s-1.54.7-2.36.7c-1.1,0-2.06-.38-2.87-1.15s-1.33-1.65-1.56-2.66c-.23-1.01-.34-2.65-.34-4.92v-14.42c0-2.37.11-4.05.34-5.04.23-.99.75-1.86,1.57-2.61.82-.75,1.8-1.13,2.94-1.13.88,0,1.68.21,2.42.63.73.42,1.4,1.05,2,1.89v-8.74h7.1ZM483.68,296.12c0-1.13-.07-1.89-.22-2.28-.15-.39-.44-.58-.87-.58s-.71.17-.85.52c-.15.35-.22,1.13-.22,2.33v15.1c0,1.25.07,2.08.21,2.47.14.4.41.59.81.59.46,0,.76-.22.91-.66.15-.44.23-1.52.23-3.24v-14.26Z"/><path class="cls-1" d="M500.44,288.37l-.28,4.05c1.03-2.9,2.53-4.44,4.48-4.61v10.85c-1.3,0-2.26.23-2.87.7-.61.46-.98,1.11-1.12,1.94-.14.83-.21,2.74-.21,5.73v12.17h-7.1v-30.82h7.1Z"/><path class="cls-1" d="M522.48,288.37v30.82h-7.22l.12-2.56c-.49,1.04-1.1,1.82-1.82,2.34-.72.52-1.55.78-2.49.78-1.07,0-1.95-.25-2.65-.74-.7-.5-1.22-1.15-1.56-1.97s-.54-1.68-.62-2.57c-.08-.89-.12-2.66-.12-5.31v-20.79h7.1v20.98c0,2.4.06,3.82.17,4.27s.41.67.91.67c.53,0,.84-.23.94-.7.1-.46.15-1.96.15-4.48v-20.74h7.1Z"/><path class="cls-1" d="M529.76,311.52v7.67h-5.36v-7.67h5.36Z"/><path class="cls-1" d="M538.23,281.58h5.54c3.57,0,5.99.22,7.25.65s2.22,1.15,2.87,2.14c.66.99,1.07,2.09,1.23,3.31.16,1.22.25,3.6.25,7.17v13.17c0,3.38-.12,5.63-.36,6.77s-.66,2.03-1.26,2.67-1.34,1.09-2.21,1.35-2.2.38-3.97.38h-9.33v-37.61ZM545.63,288.02v24.74c1.07,0,1.72-.28,1.97-.85.25-.56.37-2.1.37-4.61v-14.61c0-1.7-.04-2.79-.12-3.28-.08-.48-.27-.83-.56-1.06s-.84-.34-1.65-.34Z"/><path class="cls-1" d="M574,304.32h-9.19v6.67c0,1.39.08,2.29.23,2.69s.45.6.88.6c.54,0,.9-.27,1.08-.8s.27-1.57.27-3.1v-4.06h6.73v2.28c0,1.9-.09,3.37-.27,4.39-.18,1.02-.61,2.11-1.27,3.28s-1.51,2.03-2.54,2.61c-1.03.58-2.31.87-3.86.87s-2.82-.29-3.97-.86-2.04-1.36-2.68-2.36-1.08-2.1-1.33-3.3c-.25-1.2-.37-2.95-.37-5.24v-8.99c0-2.69.28-4.82.83-6.38s1.45-2.75,2.71-3.58c1.25-.83,2.7-1.24,4.32-1.24,1.99,0,3.64.5,4.93,1.5,1.29,1,2.2,2.32,2.72,3.97s.78,3.97.78,6.96v4.09ZM566.88,299.31v-2.25c0-1.59-.06-2.62-.19-3.09-.13-.46-.39-.7-.79-.7-.49,0-.8.2-.91.59s-.18,1.46-.18,3.19v2.25h2.07Z"/><path class="cls-1" d="M583.81,284.25v4.85h1.92v4.88h-1.92v16.49c0,2.03.08,3.16.24,3.39s.82.35,1.98.35v4.97h-2.87c-1.62,0-2.77-.09-3.46-.27-.69-.18-1.3-.59-1.83-1.23s-.86-1.38-.98-2.21c-.13-.83-.19-2.78-.19-5.84v-15.66h-1.53v-4.88h1.53v-4.85h7.12Z"/><path class="cls-1" d="M600.65,288.37l-.12,2.93c.55-1.16,1.21-2.04,1.97-2.62s1.63-.87,2.6-.87c1.9,0,3.39,1.16,4.48,3.49.6-1.16,1.27-2.04,2.02-2.62s1.58-.87,2.5-.87c1.21,0,2.21.39,3,1.16.79.77,1.3,1.72,1.52,2.85.22,1.12.33,2.95.33,5.47v21.9h-6.89v-20.09c0-2.63-.07-4.26-.2-4.89-.13-.63-.45-.94-.94-.94s-.83.31-.98.93c-.15.62-.22,2.25-.22,4.9v20.09h-6.89v-19.58c0-3.02-.06-4.83-.17-5.44-.11-.6-.42-.91-.92-.91-.32,0-.59.16-.81.48-.22.32-.35.71-.37,1.16-.02.46-.04,1.43-.04,2.92v21.37h-6.89v-30.82h7.01Z"/><path class="cls-1" d="M627.74,300.3h-6.66v-2.07c0-2.38.21-4.22.62-5.52.42-1.29,1.25-2.44,2.5-3.43,1.25-.99,2.88-1.49,4.89-1.49,2.4,0,4.21.56,5.43,1.68,1.22,1.12,1.95,2.5,2.2,4.13s.37,5,.37,10.09v15.47h-6.91v-2.75c-.43,1.1-.99,1.93-1.68,2.48s-1.5.83-2.45.83c-1.24,0-2.38-.46-3.42-1.38-1.04-.92-1.56-2.94-1.56-6.05v-2.53c0-2.31.28-3.88.83-4.72.55-.84,1.92-1.81,4.1-2.93,2.33-1.21,3.58-2.02,3.74-2.44.16-.42.25-1.27.25-2.55,0-1.61-.09-2.66-.27-3.15s-.48-.73-.91-.73c-.48,0-.78.21-.9.62s-.18,1.48-.18,3.19v3.23ZM629.18,276.52c.98,0,1.85.47,2.58,1.41.74.94,1.11,2.1,1.11,3.5s-.36,2.5-1.09,3.45-1.59,1.43-2.6,1.43-1.91-.48-2.63-1.43-1.08-2.1-1.08-3.45.36-2.5,1.09-3.46c.73-.96,1.6-1.44,2.62-1.44ZM629.14,279.58c-.39,0-.72.19-1.01.56s-.43.83-.43,1.37.14.98.43,1.35.62.56,1.01.56.74-.19,1.03-.56.43-.82.43-1.35-.14-1-.43-1.37-.63-.56-1.03-.56ZM629.99,304.53c-1.14,1.1-1.8,2.02-1.98,2.76-.18.74-.27,1.81-.27,3.21,0,1.6.08,2.62.24,3.09.16.46.47.7.94.7s.74-.18.87-.55c.13-.36.2-1.32.2-2.87v-6.34Z"/><path class="cls-1" d="M652.98,281.58v8.9c.59-.9,1.24-1.57,1.96-2.01s1.5-.66,2.35-.66c.97,0,1.82.2,2.53.6s1.26.97,1.63,1.7c.38.73.6,1.44.68,2.14s.11,2.18.11,4.46v13.89c0,2.26-.11,3.94-.34,5.05-.23,1.11-.76,2.07-1.61,2.88s-1.85,1.22-3.01,1.22c-.83,0-1.61-.24-2.33-.72s-1.38-1.2-1.98-2.16l-.46,2.33h-6.64v-37.61h7.1ZM655.14,297.12c0-1.59-.08-2.64-.23-3.12s-.45-.73-.9-.73-.71.21-.84.64c-.13.43-.19,1.5-.19,3.22v13.29c0,1.66.07,2.72.22,3.18.15.46.44.7.87.7s.74-.24.87-.72.2-1.63.2-3.46v-12.98Z"/><path class="cls-1" d="M670.93,300.3h-6.66v-2.07c0-2.38.21-4.22.62-5.52.42-1.29,1.25-2.44,2.5-3.43,1.25-.99,2.88-1.49,4.89-1.49,2.4,0,4.21.56,5.43,1.68,1.22,1.12,1.95,2.5,2.2,4.13s.37,5,.37,10.09v15.47h-6.91v-2.75c-.43,1.1-.99,1.93-1.68,2.48s-1.5.83-2.45.83c-1.24,0-2.38-.46-3.42-1.38-1.04-.92-1.56-2.94-1.56-6.05v-2.53c0-2.31.28-3.88.83-4.72.55-.84,1.92-1.81,4.1-2.93,2.33-1.21,3.58-2.02,3.74-2.44.16-.42.25-1.27.25-2.55,0-1.61-.09-2.66-.27-3.15s-.48-.73-.91-.73c-.48,0-.78.21-.9.62s-.18,1.48-.18,3.19v3.23ZM673.18,304.53c-1.14,1.1-1.8,2.02-1.98,2.76-.18.74-.27,1.81-.27,3.21,0,1.6.08,2.62.24,3.09.16.46.47.7.94.7s.74-.18.87-.55c.13-.36.2-1.32.2-2.87v-6.34Z"/><path class="cls-1" d="M689.82,288.37l-.28,4.05c1.03-2.9,2.53-4.44,4.48-4.61v10.85c-1.3,0-2.26.23-2.87.7-.61.46-.98,1.11-1.12,1.94-.14.83-.21,2.74-.21,5.73v12.17h-7.1v-30.82h7.1Z"/><path class="cls-1" d="M711.69,304.32h-9.19v6.67c0,1.39.08,2.29.23,2.69s.45.6.88.6c.54,0,.9-.27,1.08-.8s.27-1.57.27-3.1v-4.06h6.73v2.28c0,1.9-.09,3.37-.27,4.39-.18,1.02-.61,2.11-1.27,3.28s-1.51,2.03-2.54,2.61c-1.03.58-2.31.87-3.86.87s-2.82-.29-3.97-.86-2.04-1.36-2.68-2.36-1.08-2.1-1.33-3.3c-.25-1.2-.37-2.95-.37-5.24v-8.99c0-2.69.28-4.82.83-6.38s1.45-2.75,2.71-3.58c1.25-.83,2.7-1.24,4.32-1.24,1.99,0,3.64.5,4.93,1.5,1.29,1,2.2,2.32,2.72,3.97s.78,3.97.78,6.96v4.09ZM704.57,299.31v-2.25c0-1.59-.06-2.62-.19-3.09-.13-.46-.39-.7-.79-.7-.49,0-.8.2-.91.59s-.18,1.46-.18,3.19v2.25h2.07Z"/><path class="cls-1" d="M727.67,281.58v4.9h-7.31v-4.9h7.31ZM727.67,288.37v30.82h-7.31v-30.82h7.31Z"/><path class="cls-1" d="M745.51,288.37l-2.88,12.28,3.74,18.55h-6.83l-2.21-13.43v13.43h-7.11v-37.61h7.1v15.79s2.22-9,2.22-9h5.97Z"/><path class="cls-1" d="M762.72,288.37l-2.88,12.28,3.74,18.55h-6.83l-2.21-13.43v13.43h-7.11v-37.61h7.1v15.79s2.22-9,2.22-9h5.97Z"/><path class="cls-1" d="M780.72,304.32h-9.19v6.67c0,1.39.08,2.29.23,2.69s.45.6.88.6c.54,0,.9-.27,1.08-.8s.27-1.57.27-3.1v-4.06h6.73v2.28c0,1.9-.09,3.37-.27,4.39-.18,1.02-.61,2.11-1.27,3.28s-1.51,2.03-2.54,2.61c-1.03.58-2.31.87-3.86.87s-2.82-.29-3.97-.86-2.04-1.36-2.68-2.36-1.08-2.1-1.33-3.3c-.25-1.2-.37-2.95-.37-5.24v-8.99c0-2.69.28-4.82.83-6.38s1.45-2.75,2.71-3.58c1.25-.83,2.7-1.24,4.32-1.24,1.99,0,3.64.5,4.93,1.5,1.29,1,2.2,2.32,2.72,3.97s.78,3.97.78,6.96v4.09ZM773.6,299.31v-2.25c0-1.59-.06-2.62-.19-3.09-.13-.46-.39-.7-.79-.7-.49,0-.8.2-.91.59s-.18,1.46-.18,3.19v2.25h2.07Z"/><path class="cls-1" d="M803.89,298.21h-6.29v-1.67c0-1.42-.06-2.33-.18-2.71s-.43-.57-.92-.57c-.4,0-.7.17-.9.52-.2.35-.3.87-.3,1.57,0,.94.05,1.64.15,2.08s.4.93.9,1.45c.5.53,1.52,1.29,3.07,2.3,2.06,1.33,3.42,2.59,4.06,3.76s.97,2.89.97,5.13c0,2.51-.25,4.4-.74,5.68-.49,1.28-1.32,2.26-2.47,2.95s-2.55,1.03-4.17,1.03c-1.8,0-3.35-.37-4.63-1.12-1.28-.74-2.17-1.75-2.65-3.02-.48-1.27-.72-3.19-.72-5.76v-1.49h6.29v1.95c0,1.66.08,2.73.24,3.23s.47.74.94.74c.5,0,.86-.17,1.05-.5s.3-1.03.3-2.1c0-1.47-.13-2.39-.39-2.76-.27-.37-1.65-1.47-4.13-3.3-2.09-1.55-3.36-2.95-3.81-4.22s-.69-2.76-.69-4.49c0-2.46.25-4.28.74-5.45.49-1.17,1.33-2.07,2.5-2.71,1.18-.63,2.55-.95,4.1-.95s2.86.26,3.95.78c1.08.52,1.92,1.2,2.5,2.06s.93,1.64,1.05,2.37c.12.73.18,1.87.18,3.41v1.79Z"/><path class="cls-1" d="M821.62,288.37l-2.88,12.28,3.74,18.55h-6.83l-2.21-13.43v13.43h-7.11v-37.61h7.1v15.79s2.22-9,2.22-9h5.97Z"/><path class="cls-1" d="M839.62,304.32h-9.19v6.67c0,1.39.08,2.29.23,2.69s.45.6.88.6c.54,0,.9-.27,1.08-.8s.27-1.57.27-3.1v-4.06h6.73v2.28c0,1.9-.09,3.37-.27,4.39-.18,1.02-.61,2.11-1.27,3.28s-1.51,2.03-2.54,2.61c-1.03.58-2.31.87-3.86.87s-2.82-.29-3.97-.86-2.04-1.36-2.68-2.36-1.08-2.1-1.33-3.3c-.25-1.2-.37-2.95-.37-5.24v-8.99c0-2.69.28-4.82.83-6.38s1.45-2.75,2.71-3.58c1.25-.83,2.7-1.24,4.32-1.24,1.99,0,3.64.5,4.93,1.5,1.29,1,2.2,2.32,2.72,3.97s.78,3.97.78,6.96v4.09ZM832.5,299.31v-2.25c0-1.59-.06-2.62-.19-3.09-.13-.46-.39-.7-.79-.7-.49,0-.8.2-.91.59s-.18,1.46-.18,3.19v2.25h2.07Z"/><path class="cls-1" d="M862.79,298.21h-6.29v-1.67c0-1.42-.06-2.33-.18-2.71s-.43-.57-.92-.57c-.4,0-.7.17-.9.52-.2.35-.3.87-.3,1.57,0,.94.05,1.64.15,2.08s.4.93.9,1.45c.5.53,1.52,1.29,3.07,2.3,2.06,1.33,3.42,2.59,4.06,3.76s.97,2.89.97,5.13c0,2.51-.25,4.4-.74,5.68-.49,1.28-1.32,2.26-2.47,2.95s-2.55,1.03-4.17,1.03c-1.8,0-3.35-.37-4.63-1.12-1.28-.74-2.17-1.75-2.65-3.02-.48-1.27-.72-3.19-.72-5.76v-1.49h6.29v1.95c0,1.66.08,2.73.24,3.23s.47.74.94.74c.5,0,.86-.17,1.05-.5s.3-1.03.3-2.1c0-1.47-.13-2.39-.39-2.76-.27-.37-1.65-1.47-4.13-3.3-2.09-1.55-3.36-2.95-3.81-4.22s-.69-2.76-.69-4.49c0-2.46.25-4.28.74-5.45.49-1.17,1.33-2.07,2.5-2.71,1.18-.63,2.55-.95,4.1-.95s2.86.26,3.95.78c1.08.52,1.92,1.2,2.5,2.06s.93,1.64,1.05,2.37c.12.73.18,1.87.18,3.41v1.79Z"/><path class="cls-1" d="M871.58,300.3h-6.66v-2.07c0-2.38.21-4.22.62-5.52.42-1.29,1.25-2.44,2.5-3.43,1.25-.99,2.88-1.49,4.89-1.49,2.4,0,4.21.56,5.43,1.68,1.22,1.12,1.95,2.5,2.2,4.13s.37,5,.37,10.09v15.47h-6.91v-2.75c-.43,1.1-.99,1.93-1.68,2.48s-1.5.83-2.45.83c-1.24,0-2.38-.46-3.42-1.38-1.04-.92-1.56-2.94-1.56-6.05v-2.53c0-2.31.28-3.88.83-4.72.55-.84,1.92-1.81,4.1-2.93,2.33-1.21,3.58-2.02,3.74-2.44.16-.42.25-1.27.25-2.55,0-1.61-.09-2.66-.27-3.15s-.48-.73-.91-.73c-.48,0-.78.21-.9.62s-.18,1.48-.18,3.19v3.23ZM873.02,276.52c.98,0,1.85.47,2.58,1.41.74.94,1.11,2.1,1.11,3.5s-.36,2.5-1.09,3.45-1.59,1.43-2.6,1.43-1.91-.48-2.63-1.43-1.08-2.1-1.08-3.45.36-2.5,1.09-3.46c.73-.96,1.6-1.44,2.62-1.44ZM872.99,279.58c-.39,0-.72.19-1.01.56s-.43.83-.43,1.37.14.98.43,1.35.62.56,1.01.56.74-.19,1.03-.56.43-.82.43-1.35-.14-1-.43-1.37-.63-.56-1.03-.56ZM873.83,304.53c-1.14,1.1-1.8,2.02-1.98,2.76-.18.74-.27,1.81-.27,3.21,0,1.6.08,2.62.24,3.09.16.46.47.7.94.7s.74-.18.87-.55c.13-.36.2-1.32.2-2.87v-6.34Z"/><path class="cls-1" d="M899.53,281.58v37.61h-7.1v-2.24c-.68.93-1.39,1.63-2.14,2.1s-1.54.7-2.36.7c-1.1,0-2.06-.38-2.87-1.15s-1.33-1.65-1.56-2.66c-.23-1.01-.34-2.65-.34-4.92v-14.42c0-2.37.11-4.05.34-5.04.23-.99.75-1.86,1.57-2.61.82-.75,1.8-1.13,2.94-1.13.88,0,1.68.21,2.42.63.73.42,1.4,1.05,2,1.89v-8.74h7.1ZM892.43,296.12c0-1.13-.07-1.89-.22-2.28-.15-.39-.44-.58-.87-.58s-.71.17-.85.52c-.15.35-.22,1.13-.22,2.33v15.1c0,1.25.07,2.08.21,2.47.14.4.41.59.81.59.46,0,.76-.22.91-.66.15-.44.23-1.52.23-3.24v-14.26Z"/><path class="cls-1" d="M908.42,300.3h-6.66v-2.07c0-2.38.21-4.22.62-5.52.42-1.29,1.25-2.44,2.5-3.43,1.25-.99,2.88-1.49,4.89-1.49,2.4,0,4.21.56,5.43,1.68,1.22,1.12,1.95,2.5,2.2,4.13s.37,5,.37,10.09v15.47h-6.91v-2.75c-.43,1.1-.99,1.93-1.68,2.48s-1.5.83-2.45.83c-1.24,0-2.38-.46-3.42-1.38-1.04-.92-1.56-2.94-1.56-6.05v-2.53c0-2.31.28-3.88.83-4.72.55-.84,1.92-1.81,4.1-2.93,2.33-1.21,3.58-2.02,3.74-2.44.16-.42.25-1.27.25-2.55,0-1.61-.09-2.66-.27-3.15s-.48-.73-.91-.73c-.48,0-.78.21-.9.62s-.18,1.48-.18,3.19v3.23ZM910.67,304.53c-1.14,1.1-1.8,2.02-1.98,2.76-.18.74-.27,1.81-.27,3.21,0,1.6.08,2.62.24,3.09.16.46.47.7.94.7s.74-.18.87-.55c.13-.36.2-1.32.2-2.87v-6.34Z"/><path class="cls-1" d="M927.44,288.37l-.12,2.84c.52-1.13,1.15-1.98,1.89-2.55.74-.57,1.6-.85,2.58-.85,1.22,0,2.21.38,2.99,1.14s1.27,1.72,1.49,2.87c.22,1.15.33,3.08.33,5.77v21.6h-7.1v-21.35c0-2.12-.05-3.41-.16-3.88-.11-.46-.4-.7-.88-.7s-.82.27-.95.8c-.13.53-.19,1.96-.19,4.29v20.84h-7.1v-30.82h7.22Z"/><path class="cls-1" d="M961.47,304.32h-9.19v6.67c0,1.39.08,2.29.23,2.69s.45.6.88.6c.54,0,.9-.27,1.08-.8s.27-1.57.27-3.1v-4.06h6.73v2.28c0,1.9-.09,3.37-.27,4.39-.18,1.02-.61,2.11-1.27,3.28s-1.51,2.03-2.54,2.61c-1.03.58-2.31.87-3.86.87s-2.82-.29-3.97-.86-2.04-1.36-2.68-2.36-1.08-2.1-1.33-3.3c-.25-1.2-.37-2.95-.37-5.24v-8.99c0-2.69.28-4.82.83-6.38s1.45-2.75,2.71-3.58c1.25-.83,2.7-1.24,4.32-1.24,1.99,0,3.64.5,4.93,1.5,1.29,1,2.2,2.32,2.72,3.97s.78,3.97.78,6.96v4.09ZM954.36,299.31v-2.25c0-1.59-.06-2.62-.19-3.09-.13-.46-.39-.7-.79-.7-.49,0-.8.2-.91.59s-.18,1.46-.18,3.19v2.25h2.07Z"/><path class="cls-1" d="M971.02,288.37l-.12,2.84c.52-1.13,1.15-1.98,1.89-2.55.74-.57,1.6-.85,2.58-.85,1.22,0,2.21.38,2.99,1.14s1.27,1.72,1.49,2.87c.22,1.15.33,3.08.33,5.77v21.6h-7.1v-21.35c0-2.12-.05-3.41-.16-3.88-.11-.46-.4-.7-.88-.7s-.82.27-.95.8c-.13.53-.19,1.96-.19,4.29v20.84h-7.1v-30.82h7.22Z"/><path class="cls-1" d="M995.31,300.3h-6.66v-2.07c0-2.38.21-4.22.62-5.52.42-1.29,1.25-2.44,2.5-3.43,1.25-.99,2.88-1.49,4.89-1.49,2.4,0,4.21.56,5.43,1.68,1.22,1.12,1.95,2.5,2.2,4.13s.37,5,.37,10.09v15.47h-6.91v-2.75c-.43,1.1-.99,1.93-1.68,2.48s-1.5.83-2.45.83c-1.24,0-2.38-.46-3.42-1.38-1.04-.92-1.56-2.94-1.56-6.05v-2.53c0-2.31.28-3.88.83-4.72.55-.84,1.92-1.81,4.1-2.93,2.33-1.21,3.58-2.02,3.74-2.44.16-.42.25-1.27.25-2.55,0-1.61-.09-2.66-.27-3.15s-.48-.73-.91-.73c-.48,0-.78.21-.9.62s-.18,1.48-.18,3.19v3.23ZM997.56,304.53c-1.14,1.1-1.8,2.02-1.98,2.76-.18.74-.27,1.81-.27,3.21,0,1.6.08,2.62.24,3.09.16.46.47.7.94.7s.74-.18.87-.55c.13-.36.2-1.32.2-2.87v-6.34Z"/><path class="cls-1" d="M1016.16,281.58v4.76c-1.46,0-2.33.09-2.59.27-.26.18-.4.69-.4,1.52v.98h2.99v4.88h-1.69v25.2h-7.1v-25.2h-1.46v-4.88h1.46c0-2.03.05-3.38.16-4.06.11-.68.37-1.29.78-1.82.42-.53,1-.94,1.75-1.22s1.92-.42,3.5-.42h2.6Z"/><path class="cls-1" d="M1025,284.25v4.85h1.92v4.88h-1.92v16.49c0,2.03.08,3.16.24,3.39s.82.35,1.98.35v4.97h-2.87c-1.62,0-2.77-.09-3.46-.27-.69-.18-1.3-.59-1.83-1.23s-.86-1.38-.98-2.21c-.13-.83-.19-2.78-.19-5.84v-15.66h-1.53v-4.88h1.53v-4.85h7.12Z"/><path class="cls-1" d="M1044.57,304.32h-9.19v6.67c0,1.39.08,2.29.23,2.69s.45.6.88.6c.54,0,.9-.27,1.08-.8s.27-1.57.27-3.1v-4.06h6.73v2.28c0,1.9-.09,3.37-.27,4.39-.18,1.02-.61,2.11-1.27,3.28s-1.51,2.03-2.54,2.61c-1.03.58-2.31.87-3.86.87s-2.82-.29-3.97-.86-2.04-1.36-2.68-2.36-1.08-2.1-1.33-3.3c-.25-1.2-.37-2.95-.37-5.24v-8.99c0-2.69.28-4.82.83-6.38s1.45-2.75,2.71-3.58c1.25-.83,2.7-1.24,4.32-1.24,1.99,0,3.64.5,4.93,1.5,1.29,1,2.2,2.32,2.72,3.97s.78,3.97.78,6.96v4.09ZM1037.45,299.31v-2.25c0-1.59-.06-2.62-.19-3.09-.13-.46-.39-.7-.79-.7-.49,0-.8.2-.91.59s-.18,1.46-.18,3.19v2.25h2.07Z"/><path class="cls-1" d="M1054.11,288.37l-.12,2.84c.52-1.13,1.15-1.98,1.89-2.55.74-.57,1.6-.85,2.58-.85,1.22,0,2.21.38,2.99,1.14s1.27,1.72,1.49,2.87c.22,1.15.33,3.08.33,5.77v21.6h-7.1v-21.35c0-2.12-.05-3.41-.16-3.88-.11-.46-.4-.7-.88-.7s-.82.27-.95.8c-.13.53-.19,1.96-.19,4.29v20.84h-7.1v-30.82h7.22Z"/><path class="cls-1" d="M1086.56,298.21h-6.29v-1.67c0-1.42-.06-2.33-.18-2.71s-.43-.57-.92-.57c-.4,0-.7.17-.9.52-.2.35-.3.87-.3,1.57,0,.94.05,1.64.15,2.08s.4.93.9,1.45c.5.53,1.52,1.29,3.07,2.3,2.06,1.33,3.42,2.59,4.06,3.76s.97,2.89.97,5.13c0,2.51-.25,4.4-.74,5.68-.49,1.28-1.32,2.26-2.47,2.95s-2.55,1.03-4.17,1.03c-1.8,0-3.35-.37-4.63-1.12-1.28-.74-2.17-1.75-2.65-3.02-.48-1.27-.72-3.19-.72-5.76v-1.49h6.29v1.95c0,1.66.08,2.73.24,3.23s.47.74.94.74c.5,0,.86-.17,1.05-.5s.3-1.03.3-2.1c0-1.47-.13-2.39-.39-2.76-.27-.37-1.65-1.47-4.13-3.3-2.09-1.55-3.36-2.95-3.81-4.22s-.69-2.76-.69-4.49c0-2.46.25-4.28.74-5.45.49-1.17,1.33-2.07,2.5-2.71,1.18-.63,2.55-.95,4.1-.95s2.86.26,3.95.78c1.08.52,1.92,1.2,2.5,2.06s.93,1.64,1.05,2.37c.12.73.18,1.87.18,3.41v1.79Z"/><path class="cls-1" d="M1105.07,299.19v7.55c0,2.77-.11,4.8-.32,6.1-.21,1.29-.66,2.5-1.35,3.62-.69,1.12-1.58,1.95-2.66,2.49-1.08.53-2.33.8-3.74.8-1.57,0-2.9-.23-3.99-.69s-1.94-1.15-2.54-2.07c-.6-.92-1.03-2.04-1.29-3.34-.26-1.31-.39-3.27-.39-5.89v-7.9c0-2.86.23-5.1.7-6.71.47-1.61,1.31-2.9,2.53-3.88s2.78-1.46,4.68-1.46c1.59,0,2.96.31,4.1.94,1.14.63,2.02,1.44,2.65,2.45.62,1.01,1.05,2.04,1.27,3.11s.34,2.69.34,4.88ZM1097.97,296.87c0-1.58-.06-2.57-.19-2.98s-.4-.62-.83-.62-.7.21-.84.62-.21,1.41-.21,2.98v13.91c0,1.46.07,2.4.21,2.85.14.44.42.66.83.66s.7-.2.83-.6.2-1.27.2-2.6v-14.22Z"/><path class="cls-1" d="M1114.42,288.37l-.12,2.93c.55-1.16,1.21-2.04,1.97-2.62s1.63-.87,2.6-.87c1.9,0,3.39,1.16,4.48,3.49.6-1.16,1.27-2.04,2.02-2.62s1.58-.87,2.5-.87c1.21,0,2.21.39,3,1.16.79.77,1.3,1.72,1.52,2.85.22,1.12.33,2.95.33,5.47v21.9h-6.89v-20.09c0-2.63-.07-4.26-.2-4.89-.13-.63-.45-.94-.94-.94s-.83.31-.98.93c-.15.62-.22,2.25-.22,4.9v20.09h-6.89v-19.58c0-3.02-.06-4.83-.17-5.44-.11-.6-.42-.91-.92-.91-.32,0-.59.16-.81.48-.22.32-.35.71-.37,1.16-.02.46-.04,1.43-.04,2.92v21.37h-6.89v-30.82h7.01Z"/><path class="cls-1" d="M1148.82,281.58v4.9h-7.31v-4.9h7.31ZM1148.82,288.37v30.82h-7.31v-30.82h7.31Z"/><path class="cls-1" d="M1164.06,300.3h-6.66v-2.07c0-2.38.21-4.22.62-5.52.42-1.29,1.25-2.44,2.5-3.43,1.25-.99,2.88-1.49,4.89-1.49,2.4,0,4.21.56,5.43,1.68,1.22,1.12,1.95,2.5,2.2,4.13s.37,5,.37,10.09v15.47h-6.91v-2.75c-.43,1.1-.99,1.93-1.68,2.48s-1.5.83-2.45.83c-1.24,0-2.38-.46-3.42-1.38-1.04-.92-1.56-2.94-1.56-6.05v-2.53c0-2.31.28-3.88.83-4.72.55-.84,1.92-1.81,4.1-2.93,2.33-1.21,3.58-2.02,3.74-2.44.16-.42.25-1.27.25-2.55,0-1.61-.09-2.66-.27-3.15s-.48-.73-.91-.73c-.48,0-.78.21-.9.62s-.18,1.48-.18,3.19v3.23ZM1166.31,304.53c-1.14,1.1-1.8,2.02-1.98,2.76-.18.74-.27,1.81-.27,3.21,0,1.6.08,2.62.24,3.09.16.46.47.7.94.7s.74-.18.87-.55c.13-.36.2-1.32.2-2.87v-6.34Z"/><path class="cls-1" d="M1184.91,281.58v4.76c-1.46,0-2.33.09-2.59.27-.26.18-.4.69-.4,1.52v.98h2.99v4.88h-1.69v25.2h-7.1v-25.2h-1.46v-4.88h1.46c0-2.03.05-3.38.16-4.06.11-.68.37-1.29.78-1.82.42-.53,1-.94,1.75-1.22s1.92-.42,3.5-.42h2.6Z"/><path class="cls-1" d="M1193.75,284.25v4.85h1.92v4.88h-1.92v16.49c0,2.03.08,3.16.24,3.39s.82.35,1.98.35v4.97h-2.87c-1.62,0-2.77-.09-3.46-.27-.69-.18-1.3-.59-1.83-1.23s-.86-1.38-.98-2.21c-.13-.83-.19-2.78-.19-5.84v-15.66h-1.53v-4.88h1.53v-4.85h7.12Z"/><path class="cls-1" d="M1213.32,304.32h-9.19v6.67c0,1.39.08,2.29.23,2.69s.45.6.88.6c.54,0,.9-.27,1.08-.8s.27-1.57.27-3.1v-4.06h6.73v2.28c0,1.9-.09,3.37-.27,4.39-.18,1.02-.61,2.11-1.27,3.28s-1.51,2.03-2.54,2.61c-1.03.58-2.31.87-3.86.87s-2.82-.29-3.97-.86-2.04-1.36-2.68-2.36-1.08-2.1-1.33-3.3c-.25-1.2-.37-2.95-.37-5.24v-8.99c0-2.69.28-4.82.83-6.38s1.45-2.75,2.71-3.58c1.25-.83,2.7-1.24,4.32-1.24,1.99,0,3.64.5,4.93,1.5,1.29,1,2.2,2.32,2.72,3.97s.78,3.97.78,6.96v4.09ZM1206.2,299.31v-2.25c0-1.59-.06-2.62-.19-3.09-.13-.46-.39-.7-.79-.7-.49,0-.8.2-.91.59s-.18,1.46-.18,3.19v2.25h2.07Z"/><path class="cls-1" d="M1222.86,288.37l-.12,2.84c.52-1.13,1.15-1.98,1.89-2.55.74-.57,1.6-.85,2.58-.85,1.22,0,2.21.38,2.99,1.14s1.27,1.72,1.49,2.87c.22,1.15.33,3.08.33,5.77v21.6h-7.1v-21.35c0-2.12-.05-3.41-.16-3.88-.11-.46-.4-.7-.88-.7s-.82.27-.95.8c-.13.53-.19,1.96-.19,4.29v20.84h-7.1v-30.82h7.22Z"/><path class="cls-1" d="M1239.19,311.52v7.67h-5.36v-7.67h5.36Z"/><path class="cls-1" d="M50.93,338.67v37.61h-7.4v-37.61h7.4Z"/><path class="cls-1" d="M60.91,345.45l-.12,2.84c.52-1.13,1.15-1.98,1.89-2.55.74-.57,1.6-.85,2.58-.85,1.22,0,2.21.38,2.99,1.14s1.27,1.72,1.49,2.87c.22,1.15.33,3.08.33,5.77v21.6h-7.1v-21.35c0-2.12-.05-3.41-.16-3.88-.11-.46-.4-.7-.88-.7s-.82.27-.95.8c-.13.53-.19,1.96-.19,4.29v20.84h-7.1v-30.82h7.22Z"/><path class="cls-1" d="M88.67,338.67v37.61h-7.1v-2.24c-.68.93-1.39,1.63-2.14,2.1s-1.54.7-2.36.7c-1.1,0-2.06-.38-2.87-1.15s-1.33-1.65-1.56-2.66c-.23-1.01-.34-2.65-.34-4.92v-14.42c0-2.37.11-4.05.34-5.04.23-.99.75-1.86,1.57-2.61.82-.75,1.8-1.13,2.94-1.13.88,0,1.68.21,2.42.63.73.42,1.4,1.05,2,1.89v-8.74h7.1ZM81.57,353.21c0-1.13-.07-1.89-.22-2.28-.15-.39-.44-.58-.87-.58s-.71.17-.85.52c-.15.35-.22,1.13-.22,2.33v15.1c0,1.25.07,2.08.21,2.47.14.4.41.59.81.59.46,0,.76-.22.91-.66.15-.44.23-1.52.23-3.24v-14.26Z"/><path class="cls-1" d="M105.72,355.3h-6.29v-1.67c0-1.42-.06-2.33-.18-2.71s-.43-.57-.92-.57c-.4,0-.7.17-.9.52-.2.35-.3.87-.3,1.57,0,.94.05,1.64.15,2.08s.4.93.9,1.45c.5.53,1.52,1.29,3.07,2.3,2.06,1.33,3.42,2.59,4.06,3.76s.97,2.89.97,5.13c0,2.51-.25,4.4-.74,5.68-.49,1.28-1.32,2.26-2.47,2.95s-2.55,1.03-4.17,1.03c-1.8,0-3.35-.37-4.63-1.12-1.28-.74-2.17-1.75-2.65-3.02-.48-1.27-.72-3.19-.72-5.76v-1.49h6.29v1.95c0,1.66.08,2.73.24,3.23s.47.74.94.74c.5,0,.86-.17,1.05-.5s.3-1.03.3-2.1c0-1.47-.13-2.39-.39-2.76-.27-.37-1.65-1.47-4.13-3.3-2.09-1.55-3.36-2.95-3.81-4.22s-.69-2.76-.69-4.49c0-2.46.25-4.28.74-5.45.49-1.17,1.33-2.07,2.5-2.71,1.18-.63,2.55-.95,4.1-.95s2.86.26,3.95.78c1.08.52,1.92,1.2,2.5,2.06s.93,1.64,1.05,2.37c.12.73.18,1.87.18,3.41v1.79Z"/><path class="cls-1" d="M114.51,357.39h-6.66v-2.07c0-2.38.21-4.22.62-5.52.42-1.29,1.25-2.44,2.5-3.43,1.25-.99,2.88-1.49,4.89-1.49,2.4,0,4.21.56,5.43,1.68,1.22,1.12,1.95,2.5,2.2,4.13s.37,5,.37,10.09v15.47h-6.91v-2.75c-.43,1.1-.99,1.93-1.68,2.48s-1.5.83-2.45.83c-1.24,0-2.38-.46-3.42-1.38-1.04-.92-1.56-2.94-1.56-6.05v-2.53c0-2.31.28-3.88.83-4.72.55-.84,1.92-1.81,4.1-2.93,2.33-1.21,3.58-2.02,3.74-2.44.16-.42.25-1.27.25-2.55,0-1.61-.09-2.66-.27-3.15s-.48-.73-.91-.73c-.48,0-.78.21-.9.62s-.18,1.48-.18,3.19v3.23ZM116.76,361.62c-1.14,1.1-1.8,2.02-1.98,2.76-.18.74-.27,1.81-.27,3.21,0,1.6.08,2.62.24,3.09.16.46.47.7.94.7s.74-.18.87-.55c.13-.36.2-1.32.2-2.87v-6.34Z"/><path class="cls-1" d="M133.32,345.45l-.12,2.93c.55-1.16,1.21-2.04,1.97-2.62s1.63-.87,2.6-.87c1.9,0,3.39,1.16,4.48,3.49.6-1.16,1.27-2.04,2.02-2.62s1.58-.87,2.5-.87c1.21,0,2.21.39,3,1.16.79.77,1.3,1.72,1.52,2.85.22,1.12.33,2.95.33,5.47v21.9h-6.89v-20.09c0-2.63-.07-4.26-.2-4.89-.13-.63-.45-.94-.94-.94s-.83.31-.98.93c-.15.62-.22,2.25-.22,4.9v20.09h-6.89v-19.58c0-3.02-.06-4.83-.17-5.44-.11-.6-.42-.91-.92-.91-.32,0-.59.16-.81.48-.22.32-.35.71-.37,1.16-.02.46-.04,1.43-.04,2.92v21.37h-6.89v-30.82h7.01Z"/><path class="cls-1" d="M161.37,338.67v37.61h-7.31v-37.61h7.31Z"/><path class="cls-1" d="M185.77,338.67v6.02h-8.81v6.39c1.1-1.72,2.52-2.58,4.25-2.58,1.96,0,3.44.72,4.44,2.17,1,1.45,1.5,4.23,1.5,8.35v5.37c0,2.66-.1,4.62-.29,5.87-.19,1.25-.61,2.4-1.24,3.46-.63,1.06-1.51,1.87-2.65,2.44-1.13.57-2.51.85-4.14.85-1.83,0-3.44-.42-4.83-1.27s-2.38-2.1-2.97-3.77-.88-4.26-.88-7.76v-2.04h7.1v2.35c0,2.43.06,4.16.19,5.18s.57,1.53,1.34,1.53c.35,0,.64-.15.85-.44.22-.29.33-.61.35-.95.02-.34.04-1.82.06-4.44v-7.46c0-1.41-.11-2.37-.33-2.88-.22-.51-.59-.77-1.11-.77-.33,0-.6.13-.83.39-.22.26-.37.55-.43.85-.06.3-.1,1-.1,2.1h-7.03l.3-18.95h15.24Z"/><path class="cls-1" d="M211.82,350.05h-6.87v-2.79c0-1.3-.09-2.13-.26-2.49-.18-.36-.47-.53-.88-.53-.45,0-.78.24-1.01.72s-.34,1.21-.34,2.19c0,1.25.13,2.2.39,2.84.25.64.94,1.4,2.09,2.3,3.29,2.58,5.37,4.7,6.22,6.36.86,1.66,1.28,4.33,1.28,8.01,0,2.68-.24,4.65-.71,5.92-.47,1.27-1.39,2.33-2.75,3.19s-2.94,1.29-4.75,1.29c-1.98,0-3.67-.5-5.07-1.49s-2.32-2.25-2.75-3.79c-.43-1.53-.65-3.71-.65-6.53v-2.46h6.87v4.58c0,1.41.1,2.32.29,2.72.19.4.54.6,1.03.6s.86-.26,1.1-.77.36-1.27.36-2.28c0-2.21-.23-3.66-.69-4.34-.47-.68-1.62-1.82-3.46-3.41-1.84-1.61-3.06-2.78-3.66-3.51s-1.09-1.73-1.49-3.02c-.39-1.29-.59-2.93-.59-4.92,0-2.88.28-4.99.83-6.32.56-1.33,1.46-2.37,2.7-3.12,1.24-.75,2.74-1.13,4.5-1.13,1.92,0,3.56.41,4.91,1.23s2.25,1.85,2.69,3.1c.44,1.25.66,3.36.66,6.35v1.49Z"/><path class="cls-1" d="M222.03,341.34v4.85h1.92v4.88h-1.92v16.49c0,2.03.08,3.16.24,3.39s.82.35,1.98.35v4.97h-2.87c-1.62,0-2.77-.09-3.46-.27-.69-.18-1.3-.59-1.83-1.23s-.86-1.38-.98-2.21c-.13-.83-.19-2.78-.19-5.84v-15.66h-1.53v-4.88h1.53v-4.85h7.12Z"/><path class="cls-1" d="M241.58,356.28v7.55c0,2.77-.11,4.8-.32,6.1-.21,1.29-.66,2.5-1.35,3.62-.69,1.12-1.58,1.95-2.66,2.49-1.08.53-2.33.8-3.74.8-1.57,0-2.9-.23-3.99-.69s-1.94-1.15-2.54-2.07c-.6-.92-1.03-2.04-1.29-3.34-.26-1.31-.39-3.27-.39-5.89v-7.9c0-2.86.23-5.1.7-6.71.47-1.61,1.31-2.9,2.53-3.88s2.78-1.46,4.68-1.46c1.59,0,2.96.31,4.1.94,1.14.63,2.02,1.44,2.65,2.45.62,1.01,1.05,2.04,1.27,3.11s.34,2.69.34,4.88ZM234.48,353.95c0-1.58-.06-2.57-.19-2.98s-.4-.62-.83-.62-.7.21-.84.62-.21,1.41-.21,2.98v13.91c0,1.46.07,2.4.21,2.85.14.44.42.66.83.66s.7-.2.83-.6.2-1.27.2-2.6v-14.22Z"/><path class="cls-1" d="M251.23,338.67v37.61h-7.31v-37.61h7.31Z"/><path class="cls-1" d="M261.09,338.67v4.9h-7.31v-4.9h7.31ZM261.09,345.45v30.82h-7.31v-30.82h7.31Z"/><path class="cls-1" d="M284.68,345.45l-3.32,30.82h-9.28l-3.57-30.82h6.34l2,22.51c.16-1.66.42-5.69.8-12.1.2-3.58.43-7.05.69-10.41h6.34Z"/><path class="cls-1" d="M301.79,356.28v7.55c0,2.77-.11,4.8-.32,6.1-.21,1.29-.66,2.5-1.35,3.62-.69,1.12-1.58,1.95-2.66,2.49-1.08.53-2.33.8-3.74.8-1.57,0-2.9-.23-3.99-.69s-1.94-1.15-2.54-2.07c-.6-.92-1.03-2.04-1.29-3.34-.26-1.31-.39-3.27-.39-5.89v-7.9c0-2.86.23-5.1.7-6.71.47-1.61,1.31-2.9,2.53-3.88s2.78-1.46,4.68-1.46c1.59,0,2.96.31,4.1.94,1.14.63,2.02,1.44,2.65,2.45.62,1.01,1.05,2.04,1.27,3.11s.34,2.69.34,4.88ZM294.68,353.95c0-1.58-.06-2.57-.19-2.98s-.4-.62-.83-.62-.7.21-.84.62-.21,1.41-.21,2.98v13.91c0,1.46.07,2.4.21,2.85.14.44.42.66.83.66s.7-.2.83-.6.2-1.27.2-2.6v-14.22Z"/><path class="cls-1" d="M320.28,338.67v37.61h-7.1v-2.24c-.68.93-1.39,1.63-2.14,2.1s-1.54.7-2.36.7c-1.1,0-2.06-.38-2.87-1.15s-1.33-1.65-1.56-2.66c-.23-1.01-.34-2.65-.34-4.92v-14.42c0-2.37.11-4.05.34-5.04.23-.99.75-1.86,1.57-2.61.82-.75,1.8-1.13,2.94-1.13.88,0,1.68.21,2.42.63.73.42,1.4,1.05,2,1.89v-8.74h7.1ZM313.18,353.21c0-1.13-.07-1.89-.22-2.28-.15-.39-.44-.58-.87-.58s-.71.17-.85.52c-.15.35-.22,1.13-.22,2.33v15.1c0,1.25.07,2.08.21,2.47.14.4.41.59.81.59.46,0,.76-.22.91-.66.15-.44.23-1.52.23-3.24v-14.26Z"/><path class="cls-1" d="M338.12,345.45l-2.88,12.28,3.74,18.55h-6.83l-2.21-13.43v13.43h-7.11v-37.61h7.1v15.79s2.22-9,2.22-9h5.97Z"/><path class="cls-1" d="M346.38,357.39h-6.66v-2.07c0-2.38.21-4.22.62-5.52.42-1.29,1.25-2.44,2.5-3.43,1.25-.99,2.88-1.49,4.89-1.49,2.4,0,4.21.56,5.43,1.68,1.22,1.12,1.95,2.5,2.2,4.13s.37,5,.37,10.09v15.47h-6.91v-2.75c-.43,1.1-.99,1.93-1.68,2.48s-1.5.83-2.45.83c-1.24,0-2.38-.46-3.42-1.38-1.04-.92-1.56-2.94-1.56-6.05v-2.53c0-2.31.28-3.88.83-4.72.55-.84,1.92-1.81,4.1-2.93,2.33-1.21,3.58-2.02,3.74-2.44.16-.42.25-1.27.25-2.55,0-1.61-.09-2.66-.27-3.15s-.48-.73-.91-.73c-.48,0-.78.21-.9.62s-.18,1.48-.18,3.19v3.23ZM348.63,361.62c-1.14,1.1-1.8,2.02-1.98,2.76-.18.74-.27,1.81-.27,3.21,0,1.6.08,2.62.24,3.09.16.46.47.7.94.7s.74-.18.87-.55c.13-.36.2-1.32.2-2.87v-6.34Z"/><path class="cls-1" d="M368.65,368.91v3.37c0,1.77-.16,3.21-.47,4.34-.32,1.13-.86,2.09-1.64,2.88-.78.79-1.66,1.32-2.65,1.58v-2.69c.7-.53,1.1-1.23,1.2-2.11h-1.2v-7.36h4.76Z"/><path class="cls-1" d="M391.61,345.45l-3.32,30.82h-9.28l-3.57-30.82h6.34l2,22.51c.16-1.66.42-5.69.8-12.1.2-3.58.43-7.05.69-10.41h6.34Z"/><path class="cls-1" d="M399.96,338.67v4.9h-7.31v-4.9h7.31ZM399.96,345.45v30.82h-7.31v-30.82h7.31Z"/><path class="cls-1" d="M409.73,345.45l-.12,2.84c.52-1.13,1.15-1.98,1.89-2.55.74-.57,1.6-.85,2.58-.85,1.22,0,2.21.38,2.99,1.14s1.27,1.72,1.49,2.87c.22,1.15.33,3.08.33,5.77v21.6h-7.1v-21.35c0-2.12-.05-3.41-.16-3.88-.11-.46-.4-.7-.88-.7s-.82.27-.95.8c-.13.53-.19,1.96-.19,4.29v20.84h-7.1v-30.82h7.22Z"/><path class="cls-1" d="M437.49,338.67v37.61h-7.1v-2.24c-.68.93-1.39,1.63-2.14,2.1s-1.54.7-2.36.7c-1.1,0-2.06-.38-2.87-1.15s-1.33-1.65-1.56-2.66c-.23-1.01-.34-2.65-.34-4.92v-14.42c0-2.37.11-4.05.34-5.04.23-.99.75-1.86,1.57-2.61.82-.75,1.8-1.13,2.94-1.13.88,0,1.68.21,2.42.63.73.42,1.4,1.05,2,1.89v-8.74h7.1ZM430.39,353.21c0-1.13-.07-1.89-.22-2.28-.15-.39-.44-.58-.87-.58s-.71.17-.85.52c-.15.35-.22,1.13-.22,2.33v15.1c0,1.25.07,2.08.21,2.47.14.4.41.59.81.59.46,0,.76-.22.91-.66.15-.44.23-1.52.23-3.24v-14.26Z"/><path class="cls-1" d="M460.89,355.3h-6.29v-1.67c0-1.42-.06-2.33-.18-2.71s-.43-.57-.92-.57c-.4,0-.7.17-.9.52-.2.35-.3.87-.3,1.57,0,.94.05,1.64.15,2.08s.4.93.9,1.45c.5.53,1.52,1.29,3.07,2.3,2.06,1.33,3.42,2.59,4.06,3.76s.97,2.89.97,5.13c0,2.51-.25,4.4-.74,5.68-.49,1.28-1.32,2.26-2.47,2.95s-2.55,1.03-4.17,1.03c-1.8,0-3.35-.37-4.63-1.12-1.28-.74-2.17-1.75-2.65-3.02-.48-1.27-.72-3.19-.72-5.76v-1.49h6.29v1.95c0,1.66.08,2.73.24,3.23s.47.74.94.74c.5,0,.86-.17,1.05-.5s.3-1.03.3-2.1c0-1.47-.13-2.39-.39-2.76-.27-.37-1.65-1.47-4.13-3.3-2.09-1.55-3.36-2.95-3.81-4.22s-.69-2.76-.69-4.49c0-2.46.25-4.28.74-5.45.49-1.17,1.33-2.07,2.5-2.71,1.18-.63,2.55-.95,4.1-.95s2.86.26,3.95.78c1.08.52,1.92,1.2,2.5,2.06s.93,1.64,1.05,2.37c.12.73.18,1.87.18,3.41v1.79Z"/><path class="cls-1" d="M470.55,345.45l-.12,2.72c.63-1.1,1.33-1.92,2.09-2.47s1.59-.81,2.5-.81c1.1,0,2.05.39,2.86,1.17.8.78,1.3,1.68,1.5,2.71s.3,2.76.3,5.2v12.98c0,2.8-.13,4.8-.38,5.98-.25,1.19-.77,2.13-1.55,2.83s-1.72,1.06-2.82,1.06c-.88,0-1.69-.27-2.44-.81s-1.44-1.35-2.06-2.42v7.07h-7.1v-35.21h7.22ZM472.57,354.42c0-1.9-.05-3.06-.16-3.46-.11-.4-.4-.6-.88-.6s-.77.23-.91.7c-.13.46-.2,1.59-.2,3.37v12.78c0,1.86.07,3.02.21,3.48.14.46.45.7.91.7s.74-.21.85-.64c.11-.43.17-1.46.17-3.1v-13.22Z"/><path class="cls-1" d="M489.33,338.67v4.9h-7.31v-4.9h7.31ZM489.33,345.45v30.82h-7.31v-30.82h7.31Z"/><path class="cls-1" d="M499.19,338.67v37.61h-7.31v-37.61h7.31Z"/><path class="cls-1" d="M509.05,338.67v37.61h-7.31v-37.61h7.31Z"/><path class="cls-1" d="M527.68,361.41h-9.19v6.67c0,1.39.08,2.29.23,2.69s.45.6.88.6c.54,0,.9-.27,1.08-.8s.27-1.57.27-3.1v-4.06h6.73v2.28c0,1.9-.09,3.37-.27,4.39-.18,1.02-.61,2.11-1.27,3.28s-1.51,2.03-2.54,2.61c-1.03.58-2.31.87-3.86.87s-2.82-.29-3.97-.86-2.04-1.36-2.68-2.36-1.08-2.1-1.33-3.3c-.25-1.2-.37-2.95-.37-5.24v-8.99c0-2.69.28-4.82.83-6.38s1.45-2.75,2.71-3.58c1.25-.83,2.7-1.24,4.32-1.24,1.99,0,3.64.5,4.93,1.5,1.29,1,2.2,2.32,2.72,3.97s.78,3.97.78,6.96v4.09ZM520.56,356.39v-2.25c0-1.59-.06-2.62-.19-3.09-.13-.46-.39-.7-.79-.7-.49,0-.8.2-.91.59s-.18,1.46-.18,3.19v2.25h2.07Z"/><path class="cls-1" d="M537.49,341.34v4.85h1.92v4.88h-1.92v16.49c0,2.03.08,3.16.24,3.39s.82.35,1.98.35v4.97h-2.87c-1.62,0-2.77-.09-3.46-.27-.69-.18-1.3-.59-1.83-1.23s-.86-1.38-.98-2.21c-.13-.83-.19-2.78-.19-5.84v-15.66h-1.53v-4.88h1.53v-4.85h7.12Z"/><path class="cls-1" d="M563.38,356.28v7.55c0,2.77-.11,4.8-.32,6.1-.21,1.29-.66,2.5-1.35,3.62-.69,1.12-1.58,1.95-2.66,2.49-1.08.53-2.33.8-3.74.8-1.57,0-2.9-.23-3.99-.69s-1.94-1.15-2.54-2.07c-.6-.92-1.03-2.04-1.29-3.34-.26-1.31-.39-3.27-.39-5.89v-7.9c0-2.86.23-5.1.7-6.71.47-1.61,1.31-2.9,2.53-3.88s2.78-1.46,4.68-1.46c1.59,0,2.96.31,4.1.94,1.14.63,2.02,1.44,2.65,2.45.62,1.01,1.05,2.04,1.27,3.11s.34,2.69.34,4.88ZM556.28,353.95c0-1.58-.06-2.57-.19-2.98s-.4-.62-.83-.62-.7.21-.84.62-.21,1.41-.21,2.98v13.91c0,1.46.07,2.4.21,2.85.14.44.42.66.83.66s.7-.2.83-.6.2-1.27.2-2.6v-14.22Z"/><path class="cls-1" d="M581.86,345.45v23.74c0,3.21-.06,5.28-.17,6.21-.11.94-.51,1.93-1.19,2.97-.68,1.05-1.63,1.84-2.84,2.39-1.21.55-2.74.82-4.58.82-2.26,0-4.08-.51-5.45-1.52-1.37-1.01-2.08-3.01-2.13-5.98h6.89c0,1.36.38,2.04,1.12,2.04.54,0,.9-.21,1.07-.63s.26-1.29.26-2.63v-2.33c-.61.73-1.25,1.28-1.92,1.65s-1.38.56-2.12.56c-1.28,0-2.33-.34-3.16-1.02-.83-.68-1.39-1.58-1.7-2.68-.3-1.11-.46-2.68-.46-4.73v-11.2c0-2.93.4-5.03,1.2-6.32.8-1.29,2.01-1.93,3.64-1.93.89,0,1.7.24,2.43.72s1.39,1.2,1.96,2.16l.51-2.33h6.61ZM574.74,353.63c0-1.41-.06-2.31-.18-2.69-.12-.39-.4-.58-.82-.58s-.7.22-.87.66-.25,1.31-.25,2.61v10.36c0,1.38.06,2.27.19,2.68.13.41.4.62.81.62.47,0,.77-.25.91-.74s.21-1.62.21-3.37v-9.55Z"/><path class="cls-1" d="M606.89,338.67v37.61h-7.1v-2.24c-.68.93-1.39,1.63-2.14,2.1s-1.54.7-2.36.7c-1.1,0-2.06-.38-2.87-1.15s-1.33-1.65-1.56-2.66c-.23-1.01-.34-2.65-.34-4.92v-14.42c0-2.37.11-4.05.34-5.04.23-.99.75-1.86,1.57-2.61.82-.75,1.8-1.13,2.94-1.13.88,0,1.68.21,2.42.63.73.42,1.4,1.05,2,1.89v-8.74h7.1ZM599.79,353.21c0-1.13-.07-1.89-.22-2.28-.15-.39-.44-.58-.87-.58s-.71.17-.85.52c-.15.35-.22,1.13-.22,2.33v15.1c0,1.25.07,2.08.21,2.47.14.4.41.59.81.59.46,0,.76-.22.91-.66.15-.44.23-1.52.23-3.24v-14.26Z"/><path class="cls-1" d="M625.7,345.45v30.82h-7.22l.12-2.56c-.49,1.04-1.1,1.82-1.82,2.34-.72.52-1.55.78-2.49.78-1.07,0-1.95-.25-2.65-.74-.7-.5-1.22-1.15-1.56-1.97s-.54-1.68-.62-2.57c-.08-.89-.12-2.66-.12-5.31v-20.79h7.1v20.98c0,2.4.06,3.82.17,4.27s.41.67.91.67c.53,0,.84-.23.94-.7.1-.46.15-1.96.15-4.48v-20.74h7.1Z"/><path class="cls-1" d="M649.89,345.45l-2.88,12.28,3.74,18.55h-6.83l-2.21-13.43v13.43h-7.11v-37.61h7.1v15.79s2.22-9,2.22-9h5.97Z"/><path class="cls-1" d="M658.15,357.39h-6.66v-2.07c0-2.38.21-4.22.62-5.52.42-1.29,1.25-2.44,2.5-3.43,1.25-.99,2.88-1.49,4.89-1.49,2.4,0,4.21.56,5.43,1.68,1.22,1.12,1.95,2.5,2.2,4.13s.37,5,.37,10.09v15.47h-6.91v-2.75c-.43,1.1-.99,1.93-1.68,2.48s-1.5.83-2.45.83c-1.24,0-2.38-.46-3.42-1.38-1.04-.92-1.56-2.94-1.56-6.05v-2.53c0-2.31.28-3.88.83-4.72.55-.84,1.92-1.81,4.1-2.93,2.33-1.21,3.58-2.02,3.74-2.44.16-.42.25-1.27.25-2.55,0-1.61-.09-2.66-.27-3.15s-.48-.73-.91-.73c-.48,0-.78.21-.9.62s-.18,1.48-.18,3.19v3.23ZM660.4,361.62c-1.14,1.1-1.8,2.02-1.98,2.76-.18.74-.27,1.81-.27,3.21,0,1.6.08,2.62.24,3.09.16.46.47.7.94.7s.74-.18.87-.55c.13-.36.2-1.32.2-2.87v-6.34Z"/><path class="cls-1" d="M677.17,345.45l-.12,2.84c.52-1.13,1.15-1.98,1.89-2.55.74-.57,1.6-.85,2.58-.85,1.22,0,2.21.38,2.99,1.14.77.76,1.27,1.72,1.49,2.87.22,1.15.33,3.08.33,5.77v21.6h-7.1v-21.35c0-2.12-.05-3.41-.16-3.88-.11-.46-.4-.7-.88-.7s-.82.27-.95.8c-.13.53-.19,1.96-.19,4.29v20.84h-7.1v-30.82h7.22Z"/><path class="cls-1" d="M710.41,345.45l-2.88,12.28,3.74,18.55h-6.83l-2.21-13.43v13.43h-7.11v-37.61h7.1v15.79s2.22-9,2.22-9h5.97Z"/><path class="cls-1" d="M728.39,356.28v7.55c0,2.77-.11,4.8-.32,6.1-.21,1.29-.66,2.5-1.35,3.62-.69,1.12-1.58,1.95-2.66,2.49-1.08.53-2.33.8-3.74.8-1.57,0-2.9-.23-3.99-.69s-1.94-1.15-2.54-2.07c-.6-.92-1.03-2.04-1.29-3.34-.26-1.31-.39-3.27-.39-5.89v-7.9c0-2.86.23-5.1.7-6.71.47-1.61,1.31-2.9,2.53-3.88s2.78-1.46,4.68-1.46c1.59,0,2.96.31,4.1.94,1.14.63,2.02,1.44,2.65,2.45.62,1.01,1.05,2.04,1.27,3.11s.34,2.69.34,4.88ZM721.29,353.95c0-1.58-.06-2.57-.19-2.98s-.4-.62-.83-.62-.7.21-.84.62-.21,1.41-.21,2.98v13.91c0,1.46.07,2.4.21,2.85.14.44.42.66.83.66s.7-.2.83-.6.2-1.27.2-2.6v-14.22Z"/><path class="cls-1" d="M737.74,345.45l-.12,2.93c.55-1.16,1.21-2.04,1.97-2.62s1.63-.87,2.6-.87c1.9,0,3.39,1.16,4.48,3.49.6-1.16,1.27-2.04,2.02-2.62s1.58-.87,2.5-.87c1.21,0,2.21.39,3,1.16.79.77,1.3,1.72,1.52,2.85.22,1.12.33,2.95.33,5.47v21.9h-6.89v-20.09c0-2.63-.07-4.26-.2-4.89-.13-.63-.45-.94-.94-.94s-.83.31-.98.93c-.15.62-.22,2.25-.22,4.9v20.09h-6.89v-19.58c0-3.02-.06-4.83-.17-5.44-.11-.6-.42-.91-.92-.91-.32,0-.59.16-.81.48-.22.32-.35.71-.37,1.16-.02.46-.04,1.43-.04,2.92v21.37h-6.89v-30.82h7.01Z"/><path class="cls-1" d="M765.5,345.45l-.12,2.93c.55-1.16,1.21-2.04,1.97-2.62s1.63-.87,2.6-.87c1.9,0,3.39,1.16,4.48,3.49.6-1.16,1.27-2.04,2.02-2.62s1.58-.87,2.5-.87c1.21,0,2.21.39,3,1.16.79.77,1.3,1.72,1.52,2.85.22,1.12.33,2.95.33,5.47v21.9h-6.89v-20.09c0-2.63-.07-4.26-.2-4.89-.13-.63-.45-.94-.94-.94s-.83.31-.98.93c-.15.62-.22,2.25-.22,4.9v20.09h-6.89v-19.58c0-3.02-.06-4.83-.17-5.44-.11-.6-.42-.91-.92-.91-.32,0-.59.16-.81.48-.22.32-.35.71-.37,1.16-.02.46-.04,1.43-.04,2.92v21.37h-6.89v-30.82h7.01Z"/><path class="cls-1" d="M802.32,361.41h-9.19v6.67c0,1.39.08,2.29.23,2.69s.45.6.88.6c.54,0,.9-.27,1.08-.8s.27-1.57.27-3.1v-4.06h6.73v2.28c0,1.9-.09,3.37-.27,4.39-.18,1.02-.61,2.11-1.27,3.28s-1.51,2.03-2.54,2.61c-1.03.58-2.31.87-3.86.87s-2.82-.29-3.97-.86-2.04-1.36-2.68-2.36-1.08-2.1-1.33-3.3c-.25-1.2-.37-2.95-.37-5.24v-8.99c0-2.69.28-4.82.83-6.38s1.45-2.75,2.71-3.58c1.25-.83,2.7-1.24,4.32-1.24,1.99,0,3.64.5,4.93,1.5,1.29,1,2.2,2.32,2.72,3.97s.78,3.97.78,6.96v4.09ZM795.2,356.39v-2.25c0-1.59-.06-2.62-.19-3.09-.13-.46-.39-.7-.79-.7-.49,0-.8.2-.91.59s-.18,1.46-.18,3.19v2.25h2.07Z"/><path class="cls-1" d="M825.68,345.45l-3.32,30.82h-9.28l-3.57-30.82h6.34l2,22.51c.16-1.66.42-5.69.8-12.1.2-3.58.43-7.05.69-10.41h6.34Z"/><path class="cls-1" d="M834.03,338.67v4.9h-7.31v-4.9h7.31ZM834.03,345.45v30.82h-7.31v-30.82h7.31Z"/><path class="cls-1" d="M852.74,338.67v37.61h-7.1v-2.24c-.68.93-1.39,1.63-2.14,2.1s-1.54.7-2.36.7c-1.1,0-2.06-.38-2.87-1.15s-1.33-1.65-1.56-2.66c-.23-1.01-.34-2.65-.34-4.92v-14.42c0-2.37.11-4.05.34-5.04.23-.99.75-1.86,1.57-2.61.82-.75,1.8-1.13,2.94-1.13.88,0,1.68.21,2.42.63.73.42,1.4,1.05,2,1.89v-8.74h7.1ZM845.63,353.21c0-1.13-.07-1.89-.22-2.28-.15-.39-.44-.58-.87-.58s-.71.17-.85.52c-.15.35-.22,1.13-.22,2.33v15.1c0,1.25.07,2.08.21,2.47.14.4.41.59.81.59.46,0,.76-.22.91-.66.15-.44.23-1.52.23-3.24v-14.26Z"/><path class="cls-1" d="M871.37,361.41h-9.19v6.67c0,1.39.08,2.29.23,2.69s.45.6.88.6c.54,0,.9-.27,1.08-.8s.27-1.57.27-3.1v-4.06h6.73v2.28c0,1.9-.09,3.37-.27,4.39-.18,1.02-.61,2.11-1.27,3.28s-1.51,2.03-2.54,2.61c-1.03.58-2.31.87-3.86.87s-2.82-.29-3.97-.86-2.04-1.36-2.68-2.36-1.08-2.1-1.33-3.3c-.25-1.2-.37-2.95-.37-5.24v-8.99c0-2.69.28-4.82.83-6.38s1.45-2.75,2.71-3.58c1.25-.83,2.7-1.24,4.32-1.24,1.99,0,3.64.5,4.93,1.5,1.29,1,2.2,2.32,2.72,3.97s.78,3.97.78,6.96v4.09ZM864.25,356.39v-2.25c0-1.59-.06-2.62-.19-3.09-.13-.46-.39-.7-.79-.7-.49,0-.8.2-.91.59s-.18,1.46-.18,3.19v2.25h2.07Z"/><path class="cls-1" d="M880.79,345.45l-.28,4.05c1.03-2.9,2.53-4.44,4.48-4.61v10.85c-1.3,0-2.26.23-2.87.7-.61.46-.98,1.11-1.12,1.94-.14.83-.21,2.74-.21,5.73v12.17h-7.1v-30.82h7.1Z"/><path class="cls-1" d="M902.66,361.41h-9.19v6.67c0,1.39.08,2.29.23,2.69s.45.6.88.6c.54,0,.9-.27,1.08-.8s.27-1.57.27-3.1v-4.06h6.73v2.28c0,1.9-.09,3.37-.27,4.39-.18,1.02-.61,2.11-1.27,3.28s-1.51,2.03-2.54,2.61c-1.03.58-2.31.87-3.86.87s-2.82-.29-3.97-.86-2.04-1.36-2.68-2.36-1.08-2.1-1.33-3.3c-.25-1.2-.37-2.95-.37-5.24v-8.99c0-2.69.28-4.82.83-6.38s1.45-2.75,2.71-3.58c1.25-.83,2.7-1.24,4.32-1.24,1.99,0,3.64.5,4.93,1.5,1.29,1,2.2,2.32,2.72,3.97s.78,3.97.78,6.96v4.09ZM895.54,356.39v-2.25c0-1.59-.06-2.62-.19-3.09-.13-.46-.39-.7-.79-.7-.49,0-.8.2-.91.59s-.18,1.46-.18,3.19v2.25h2.07Z"/><path class="cls-1" d="M918.64,338.67v4.9h-7.31v-4.9h7.31ZM918.64,345.45v30.82h-7.31v-30.82h7.31Z"/><path class="cls-1" d="M942.03,355.3h-6.29v-1.67c0-1.42-.06-2.33-.18-2.71s-.43-.57-.92-.57c-.4,0-.7.17-.9.52-.2.35-.3.87-.3,1.57,0,.94.05,1.64.15,2.08s.4.93.9,1.45c.5.53,1.52,1.29,3.07,2.3,2.06,1.33,3.42,2.59,4.06,3.76s.97,2.89.97,5.13c0,2.51-.25,4.4-.74,5.68-.49,1.28-1.32,2.26-2.47,2.95s-2.55,1.03-4.17,1.03c-1.8,0-3.35-.37-4.63-1.12-1.28-.74-2.17-1.75-2.65-3.02-.48-1.27-.72-3.19-.72-5.76v-1.49h6.29v1.95c0,1.66.08,2.73.24,3.23s.47.74.94.74c.5,0,.86-.17,1.05-.5s.3-1.03.3-2.1c0-1.47-.13-2.39-.39-2.76-.27-.37-1.65-1.47-4.13-3.3-2.09-1.55-3.36-2.95-3.81-4.22s-.69-2.76-.69-4.49c0-2.46.25-4.28.74-5.45.49-1.17,1.33-2.07,2.5-2.71,1.18-.63,2.55-.95,4.1-.95s2.86.26,3.95.78c1.08.52,1.92,1.2,2.5,2.06s.93,1.64,1.05,2.37c.12.73.18,1.87.18,3.41v1.79Z"/><path class="cls-1" d="M951.79,338.67v4.9h-7.31v-4.9h7.31ZM951.79,345.45v30.82h-7.31v-30.82h7.31Z"/><path class="cls-1" d="M961.83,341.34v4.85h1.92v4.88h-1.92v16.49c0,2.03.08,3.16.24,3.39s.82.35,1.98.35v4.97h-2.87c-1.62,0-2.77-.09-3.46-.27-.69-.18-1.3-.59-1.83-1.23s-.86-1.38-.98-2.21c-.13-.83-.19-2.78-.19-5.84v-15.66h-1.53v-4.88h1.53v-4.85h7.12Z"/><path class="cls-1" d="M981.39,361.41h-9.19v6.67c0,1.39.08,2.29.23,2.69s.45.6.88.6c.54,0,.9-.27,1.08-.8s.27-1.57.27-3.1v-4.06h6.73v2.28c0,1.9-.09,3.37-.27,4.39-.18,1.02-.61,2.11-1.27,3.28s-1.51,2.03-2.54,2.61c-1.03.58-2.31.87-3.86.87s-2.82-.29-3.97-.86-2.04-1.36-2.68-2.36-1.08-2.1-1.33-3.3c-.25-1.2-.37-2.95-.37-5.24v-8.99c0-2.69.28-4.82.83-6.38s1.45-2.75,2.71-3.58c1.25-.83,2.7-1.24,4.32-1.24,1.99,0,3.64.5,4.93,1.5,1.29,1,2.2,2.32,2.72,3.97s.78,3.97.78,6.96v4.09ZM974.27,356.39v-2.25c0-1.59-.06-2.62-.19-3.09-.13-.46-.39-.7-.79-.7-.49,0-.8.2-.91.59s-.18,1.46-.18,3.19v2.25h2.07Z"/><path class="cls-1" d="M991.2,341.34v4.85h1.92v4.88h-1.92v16.49c0,2.03.08,3.16.24,3.39s.82.35,1.98.35v4.97h-2.87c-1.62,0-2.77-.09-3.46-.27-.69-.18-1.3-.59-1.83-1.23s-.86-1.38-.98-2.21c-.13-.83-.19-2.78-.19-5.84v-15.66h-1.53v-4.88h1.53v-4.85h7.12Z"/><path class="cls-1" d="M1000.48,368.61v7.67h-5.36v-7.67h5.36Z"/><use transform="translate(646 520.13) rotate(-15.95) scale(.31)" xlink:href="#image"/><use transform="translate(480.68 448) rotate(18.23) scale(.31)" xlink:href="#image"/></svg>